<svg xmlns="http://www.w3.org/2000/svg"
     width="1640"
     height="1250"
     viewBox="-20 -20 1640 1250">
<g id="o8:1" transform="translate(0, 0)"><rect x="0" y="0" width="1600" height="1210" fill="#ffffff" stroke="none" stroke-width="0" rx="0" ry="0"/></g>
<g id="a8:1" transform="translate(52, 16.352001)"><text font-size="32" font-family="Noto Sans SC" font-weight="bold" fill="#1f2d3d" text-anchor="start" dominant-baseline="alphabetic" x="0"><tspan x="0" y="37.648"><tspan x="0" text-anchor="start">同一条残差流：数学上相加，源码里延后相加</tspan></tspan></text></g>
<g id="a8:2" transform="translate(52, 67.47)"><text font-size="20" font-family="Noto Sans SC" font-weight="normal" fill="#657386" text-anchor="start" dominant-baseline="alphabetic" x="0"><tspan x="0" y="23.53"><tspan x="0" text-anchor="start">Qwen3-0.6B · hidden = 1024 · T 是本轮送入模型的 token 数；下图所有 h、r、x、a、y 均为 [T, 1024]</tspan></tspan></text></g>
<g id="o8:2" transform="translate(52, 117)"><rect x="0" y="0" width="1496" height="68" fill="#f3f7fc" stroke="#dce6f2" stroke-width="2" rx="6" ry="6"/></g>
<g id="a8:3" transform="translate(77, 130.9405)"><text font-size="23" font-family="Noto Sans SC" font-weight="normal" fill="#326cae" text-anchor="start" dominant-baseline="alphabetic" x="0"><tspan x="0" y="27.06"><tspan x="0" text-anchor="start">Embedding</tspan></tspan></text></g>
<g id="c8:1" transform="translate(230, 150)"><path fill="none" stroke="#4078bd" stroke-width="2" stroke-linecap="round" stroke-linejoin="round" d="M 0 0 L 64 0"/></g>
<g id="p8:1" transform="translate(281.5, 142.5)"><defs><symbol id="svgicon-p8-1" viewBox="0 0 15 15"><g transform="translate(-281.5 -142.5)"><polygon points="294,150 284,145 284,155" fill="#4078BD" /></g></symbol></defs><use href="#svgicon-p8-1" x="0" y="0" width="15" height="15"/></g>
<g id="a8:4" transform="translate(318, 130.9405)"><text font-size="23" font-family="Noto Sans SC" font-weight="bold" fill="#326cae" text-anchor="start" dominant-baseline="alphabetic" x="0"><tspan x="0" y="27.06"><tspan x="0" text-anchor="start">Decoder × 28</tspan></tspan></text></g>
<g id="c8:2" transform="translate(527, 150)"><path fill="none" stroke="#4078bd" stroke-width="2" stroke-linecap="round" stroke-linejoin="round" d="M 0 0 L 64 0"/></g>
<g id="p8:2" transform="translate(578.5, 142.5)"><defs><symbol id="svgicon-p8-2" viewBox="0 0 15 15"><g transform="translate(-578.5 -142.5)"><polygon points="591,150 581,145 581,155" fill="#4078BD" /></g></symbol></defs><use href="#svgicon-p8-2" x="0" y="0" width="15" height="15"/></g>
<g id="a8:5" transform="translate(615, 130.9405)"><text font-size="23" font-family="Noto Sans SC" font-weight="normal" fill="#326cae" text-anchor="start" dominant-baseline="alphabetic" x="0"><tspan x="0" y="27.06"><tspan x="0" text-anchor="start">最终 RMSNorm</tspan></tspan></text></g>
<g id="c8:3" transform="translate(828, 150)"><path fill="none" stroke="#4078bd" stroke-width="2" stroke-linecap="round" stroke-linejoin="round" d="M 0 0 L 64 0"/></g>
<g id="p8:3" transform="translate(879.5, 142.5)"><defs><symbol id="svgicon-p8-3" viewBox="0 0 15 15"><g transform="translate(-879.5 -142.5)"><polygon points="892,150 882,145 882,155" fill="#4078BD" /></g></symbol></defs><use href="#svgicon-p8-3" x="0" y="0" width="15" height="15"/></g>
<g id="a8:6" transform="translate(916, 130.9405)"><text font-size="23" font-family="Noto Sans SC" font-weight="normal" fill="#326cae" text-anchor="start" dominant-baseline="alphabetic" x="0"><tspan x="0" y="27.06"><tspan x="0" text-anchor="start">每条序列末位置</tspan></tspan></text></g>
<g id="c8:4" transform="translate(1130, 150)"><path fill="none" stroke="#4078bd" stroke-width="2" stroke-linecap="round" stroke-linejoin="round" d="M 0 0 L 64 0"/></g>
<g id="p8:4" transform="translate(1181.5, 142.5)"><defs><symbol id="svgicon-p8-4" viewBox="0 0 15 15"><g transform="translate(-1181.5 -142.5)"><polygon points="1194,150 1184,145 1184,155" fill="#4078BD" /></g></symbol></defs><use href="#svgicon-p8-4" x="0" y="0" width="15" height="15"/></g>
<g id="a8:7" transform="translate(1218, 130.9405)"><text font-size="23" font-family="Noto Sans SC" font-weight="normal" fill="#65537f" text-anchor="start" dominant-baseline="alphabetic" x="0"><tspan x="0" y="27.06"><tspan x="0" text-anchor="start">LM Head → logits</tspan></tspan></text></g>
<g id="o8:3" transform="translate(51, 216)"><ellipse fill="#f0f7f3" stroke="none" stroke-width="0" cx="17" cy="17" rx="17" ry="17"/></g>
<g id="a8:8" transform="translate(62, 215.2935)"><text font-size="21" font-family="Noto Sans SC" font-weight="bold" fill="#2e7963" text-anchor="start" dominant-baseline="alphabetic" x="0"><tspan x="0" y="24.707"><tspan x="0" text-anchor="start">1</tspan></tspan></text></g>
<g id="a8:9" transform="translate(101, 211.411)"><text font-size="26" font-family="Noto Sans SC" font-weight="bold" fill="#1f2d3d" text-anchor="start" dominant-baseline="alphabetic" x="0"><tspan x="0" y="30.589"><tspan x="0" text-anchor="start">数学视角：一层包含两次残差相加</tspan></tspan></text></g>
<g id="a8:10" transform="translate(102, 252.6465)"><text font-size="19" font-family="Noto Sans SC" font-weight="normal" fill="#657386" text-anchor="start" dominant-baseline="alphabetic" x="0"><tspan x="0" y="22.354"><tspan x="0" text-anchor="start">蓝色是子层计算；绿色旁路保留未归一化的残差流。</tspan></tspan></text></g>
<g id="c8:5" transform="translate(140, 312)"><path fill="none" stroke="#39826d" stroke-width="2" stroke-linecap="round" stroke-linejoin="round" d="M 0 65 L 0 0 L 538 0 L 538 45"/></g>
<g id="p8:5" transform="translate(670.5, 344.5)"><defs><symbol id="svgicon-p8-5" viewBox="0 0 15 15"><g transform="translate(-670.5 -344.5)"><polygon points="678,357 673,347 683,347" fill="#39826D" /></g></symbol></defs><use href="#svgicon-p8-5" x="0" y="0" width="15" height="15"/></g>
<g id="o8:4" transform="translate(350, 298)"><rect x="0" y="0" width="113" height="29" fill="#ffffff" stroke="none" stroke-width="0" rx="0" ry="0"/></g>
<g id="a8:11" transform="translate(364, 295.47)"><text font-size="20" font-family="Noto Sans SC" font-weight="normal" fill="#2e7963" text-anchor="start" dominant-baseline="alphabetic" x="0"><tspan x="0" y="23.53"><tspan x="0" text-anchor="start">保留 x</tspan></tspan></text></g>
<g id="c8:6" transform="translate(727, 377)"><path fill="none" stroke="#39826d" stroke-width="2" stroke-linecap="round" stroke-linejoin="round" d="M 0 0 L 0 72 L 523 72 L 523 20"/></g>
<g id="p8:6" transform="translate(1242.5, 394.5)"><defs><symbol id="svgicon-p8-6" viewBox="0 0 15 15"><g transform="translate(-1242.5 -394.5)"><polygon points="1250,397 1245,407 1255,407" fill="#39826D" /></g></symbol></defs><use href="#svgicon-p8-6" x="0" y="0" width="15" height="15"/></g>
<g id="o8:5" transform="translate(923, 435)"><rect x="0" y="0" width="113" height="29" fill="#ffffff" stroke="none" stroke-width="0" rx="0" ry="0"/></g>
<g id="a8:12" transform="translate(937, 432.47)"><text font-size="20" font-family="Noto Sans SC" font-weight="normal" fill="#2e7963" text-anchor="start" dominant-baseline="alphabetic" x="0"><tspan x="0" y="23.53"><tspan x="0" text-anchor="start">保留 a</tspan></tspan></text></g>
<g id="o8:6" transform="translate(52, 343)"><rect x="0" y="0" width="107" height="68" fill="#f0f7f3" stroke="#39826d" stroke-width="2" rx="6" ry="6"/></g>
<g id="a8:13" transform="translate(76, 355.764)"><text font-size="24" font-family="Noto Sans SC" font-weight="bold" fill="#2e7963" text-anchor="start" dominant-baseline="alphabetic" x="0"><tspan x="0" y="28.236"><tspan x="0" text-anchor="start">输入 x</tspan></tspan></text></g>
<g id="c8:7" transform="translate(159, 377)"><path fill="none" stroke="#4078bd" stroke-width="2" stroke-linecap="round" stroke-linejoin="round" d="M 0 0 L 52 0"/></g>
<g id="p8:7" transform="translate(198.5, 369.5)"><defs><symbol id="svgicon-p8-7" viewBox="0 0 15 15"><g transform="translate(-198.5 -369.5)"><polygon points="211,377 201,372 201,382" fill="#4078BD" /></g></symbol></defs><use href="#svgicon-p8-7" x="0" y="0" width="15" height="15"/></g>
<g id="o8:7" transform="translate(211, 343)"><rect x="0" y="0" width="151" height="68" fill="#f3f7fc" stroke="#4078bd" stroke-width="2" rx="6" ry="6"/></g>
<g id="a8:14" transform="translate(235, 355.764)"><text font-size="24" font-family="Noto Sans SC" font-weight="bold" fill="#326cae" text-anchor="start" dominant-baseline="alphabetic" x="0"><tspan x="0" y="28.236"><tspan x="0" text-anchor="start">Norm1</tspan></tspan></text></g>
<g id="c8:8" transform="translate(362, 377)"><path fill="none" stroke="#4078bd" stroke-width="2" stroke-linecap="round" stroke-linejoin="round" d="M 0 0 L 52 0"/></g>
<g id="p8:8" transform="translate(401.5, 369.5)"><defs><symbol id="svgicon-p8-8" viewBox="0 0 15 15"><g transform="translate(-401.5 -369.5)"><polygon points="414,377 404,372 404,382" fill="#4078BD" /></g></symbol></defs><use href="#svgicon-p8-8" x="0" y="0" width="15" height="15"/></g>
<g id="o8:8" transform="translate(414, 343)"><rect x="0" y="0" width="183" height="68" fill="#f3f7fc" stroke="#4078bd" stroke-width="2" rx="6" ry="6"/></g>
<g id="a8:15" transform="translate(443, 355.764)"><text font-size="24" font-family="Noto Sans SC" font-weight="bold" fill="#326cae" text-anchor="start" dominant-baseline="alphabetic" x="0"><tspan x="0" y="28.236"><tspan x="0" text-anchor="start">Attention</tspan></tspan></text></g>
<g id="c8:9" transform="translate(597, 377)"><path fill="none" stroke="#4078bd" stroke-width="2" stroke-linecap="round" stroke-linejoin="round" d="M 0 0 L 61 0"/></g>
<g id="p8:9" transform="translate(645.5, 369.5)"><defs><symbol id="svgicon-p8-9" viewBox="0 0 15 15"><g transform="translate(-645.5 -369.5)"><polygon points="658,377 648,372 648,382" fill="#4078BD" /></g></symbol></defs><use href="#svgicon-p8-9" x="0" y="0" width="15" height="15"/></g>
<g id="o8:9" transform="translate(658, 357)"><ellipse fill="#f0f7f3" stroke="#39826d" stroke-width="2" cx="20" cy="20" rx="20" ry="20"/></g>
<g id="a8:16" transform="translate(670, 353.2345)"><text font-size="27" font-family="Noto Sans SC" font-weight="normal" fill="#2e7963" text-anchor="start" dominant-baseline="alphabetic" x="0"><tspan x="0" y="31.765"><tspan x="0" text-anchor="start">+</tspan></tspan></text></g>
<g id="c8:10" transform="translate(698, 377)"><path fill="none" stroke="#4078bd" stroke-width="2" stroke-linecap="round" stroke-linejoin="round" d="M 0 0 L 65 0"/></g>
<g id="p8:10" transform="translate(750.5, 369.5)"><defs><symbol id="svgicon-p8-10" viewBox="0 0 15 15"><g transform="translate(-750.5 -369.5)"><polygon points="763,377 753,372 753,382" fill="#4078BD" /></g></symbol></defs><use href="#svgicon-p8-10" x="0" y="0" width="15" height="15"/></g>
<g id="a8:17" transform="translate(720, 330.9405)"><text font-size="23" font-family="Noto Sans SC" font-weight="bold" fill="#2e7963" text-anchor="start" dominant-baseline="alphabetic" x="0"><tspan x="0" y="27.06"><tspan x="0" text-anchor="start">a</tspan></tspan></text></g>
<g id="o8:10" transform="translate(763, 343)"><rect x="0" y="0" width="151" height="68" fill="#f3f7fc" stroke="#4078bd" stroke-width="2" rx="6" ry="6"/></g>
<g id="a8:18" transform="translate(787, 355.764)"><text font-size="24" font-family="Noto Sans SC" font-weight="bold" fill="#326cae" text-anchor="start" dominant-baseline="alphabetic" x="0"><tspan x="0" y="28.236"><tspan x="0" text-anchor="start">Norm2</tspan></tspan></text></g>
<g id="c8:11" transform="translate(914, 377)"><path fill="none" stroke="#4078bd" stroke-width="2" stroke-linecap="round" stroke-linejoin="round" d="M 0 0 L 52 0"/></g>
<g id="p8:11" transform="translate(953.5, 369.5)"><defs><symbol id="svgicon-p8-11" viewBox="0 0 15 15"><g transform="translate(-953.5 -369.5)"><polygon points="966,377 956,372 956,382" fill="#4078BD" /></g></symbol></defs><use href="#svgicon-p8-11" x="0" y="0" width="15" height="15"/></g>
<g id="o8:11" transform="translate(966, 343)"><rect x="0" y="0" width="183" height="68" fill="#f3f7fc" stroke="#4078bd" stroke-width="2" rx="6" ry="6"/></g>
<g id="a8:19" transform="translate(1033, 355.764)"><text font-size="24" font-family="Noto Sans SC" font-weight="bold" fill="#326cae" text-anchor="start" dominant-baseline="alphabetic" x="0"><tspan x="0" y="28.236"><tspan x="0" text-anchor="start">MLP</tspan></tspan></text></g>
<g id="c8:12" transform="translate(1149, 377)"><path fill="none" stroke="#4078bd" stroke-width="2" stroke-linecap="round" stroke-linejoin="round" d="M 0 0 L 81 0"/></g>
<g id="p8:12" transform="translate(1217.5, 369.5)"><defs><symbol id="svgicon-p8-12" viewBox="0 0 15 15"><g transform="translate(-1217.5 -369.5)"><polygon points="1230,377 1220,372 1220,382" fill="#4078BD" /></g></symbol></defs><use href="#svgicon-p8-12" x="0" y="0" width="15" height="15"/></g>
<g id="o8:12" transform="translate(1230, 357)"><ellipse fill="#f0f7f3" stroke="#39826d" stroke-width="2" cx="20" cy="20" rx="20" ry="20"/></g>
<g id="a8:20" transform="translate(1242, 353.2345)"><text font-size="27" font-family="Noto Sans SC" font-weight="normal" fill="#2e7963" text-anchor="start" dominant-baseline="alphabetic" x="0"><tspan x="0" y="31.765"><tspan x="0" text-anchor="start">+</tspan></tspan></text></g>
<g id="c8:13" transform="translate(1270, 377)"><path fill="none" stroke="#39826d" stroke-width="2" stroke-linecap="round" stroke-linejoin="round" d="M 0 0 L 65 0"/></g>
<g id="p8:13" transform="translate(1322.5, 369.5)"><defs><symbol id="svgicon-p8-13" viewBox="0 0 15 15"><g transform="translate(-1322.5 -369.5)"><polygon points="1335,377 1325,372 1325,382" fill="#39826D" /></g></symbol></defs><use href="#svgicon-p8-13" x="0" y="0" width="15" height="15"/></g>
<g id="o8:13" transform="translate(1335, 343)"><rect x="0" y="0" width="213" height="68" fill="#f0f7f3" stroke="#39826d" stroke-width="2" rx="6" ry="6"/></g>
<g id="a8:21" transform="translate(1368, 355.764)"><text font-size="24" font-family="Noto Sans SC" font-weight="bold" fill="#2e7963" text-anchor="start" dominant-baseline="alphabetic" x="0"><tspan x="0" y="28.236"><tspan x="0" text-anchor="start">本层输出 y</tspan></tspan></text></g>
<g id="a8:22" transform="translate(165, 473.5875)"><text font-size="25" font-family="Noto Sans SC" font-weight="normal" fill="#1f2d3d" text-anchor="start" dominant-baseline="alphabetic" x="0"><tspan x="0" y="29.412"><tspan x="0" text-anchor="start">a = x + Attention(Norm1(x))</tspan></tspan></text></g>
<g id="a8:23" transform="translate(835, 473.5875)"><text font-size="25" font-family="Noto Sans SC" font-weight="normal" fill="#1f2d3d" text-anchor="start" dominant-baseline="alphabetic" x="0"><tspan x="0" y="29.412"><tspan x="0" text-anchor="start">y = a + MLP(Norm2(a))</tspan></tspan></text></g>
<g id="c8:14" transform="translate(52, 538)"><path fill="none" stroke="#dce2e9" stroke-width="2" stroke-linecap="round" stroke-linejoin="round" d="M 0 0 L 1496 0"/></g>
<g id="o8:14" transform="translate(51, 568)"><ellipse fill="#f7f4fb" stroke="none" stroke-width="0" cx="17" cy="17" rx="17" ry="17"/></g>
<g id="a8:24" transform="translate(62, 567.2935)"><text font-size="21" font-family="Noto Sans SC" font-weight="bold" fill="#65537f" text-anchor="start" dominant-baseline="alphabetic" x="0"><tspan x="0" y="24.707"><tspan x="0" text-anchor="start">2</tspan></tspan></text></g>
<g id="a8:25" transform="translate(101, 563.411)"><text font-size="26" font-family="Noto Sans SC" font-weight="bold" fill="#1f2d3d" text-anchor="start" dominant-baseline="alphabetic" x="0"><tspan x="0" y="30.589"><tspan x="0" text-anchor="start">源码视角：h 与 r 分开传，遇到融合 RMSNorm 再相加</tspan></tspan></text></g>
<g id="a8:26" transform="translate(102, 606.6465)"><text font-size="19" font-family="Noto Sans SC" font-weight="normal" fill="#657386" text-anchor="start" dominant-baseline="alphabetic" x="0"><tspan x="0" y="22.354"><tspan x="0" text-anchor="start">h = hidden_states（当前子层结果）；r = residual（保留的残差流）。以下从首层开始。</tspan></tspan></text></g>
<g id="c8:15" transform="translate(304, 726)"><path fill="none" stroke="#4078bd" stroke-width="2" stroke-linecap="round" stroke-linejoin="round" d="M 0 0 L 78 0"/></g>
<g id="p8:14" transform="translate(369.5, 718.5)"><defs><symbol id="svgicon-p8-14" viewBox="0 0 15 15"><g transform="translate(-369.5 -718.5)"><polygon points="382,726 372,721 372,731" fill="#4078BD" /></g></symbol></defs><use href="#svgicon-p8-14" x="0" y="0" width="15" height="15"/></g>
<g id="c8:16" transform="translate(568, 726)"><path fill="none" stroke="#4078bd" stroke-width="2" stroke-linecap="round" stroke-linejoin="round" d="M 0 0 L 78 0"/></g>
<g id="p8:15" transform="translate(633.5, 718.5)"><defs><symbol id="svgicon-p8-15" viewBox="0 0 15 15"><g transform="translate(-633.5 -718.5)"><polygon points="646,726 636,721 636,731" fill="#4078BD" /></g></symbol></defs><use href="#svgicon-p8-15" x="0" y="0" width="15" height="15"/></g>
<g id="c8:17" transform="translate(919, 726)"><path fill="none" stroke="#4078bd" stroke-width="2" stroke-linecap="round" stroke-linejoin="round" d="M 0 0 L 78 0"/></g>
<g id="p8:16" transform="translate(984.5, 718.5)"><defs><symbol id="svgicon-p8-16" viewBox="0 0 15 15"><g transform="translate(-984.5 -718.5)"><polygon points="997,726 987,721 987,731" fill="#4078BD" /></g></symbol></defs><use href="#svgicon-p8-16" x="0" y="0" width="15" height="15"/></g>
<g id="c8:18" transform="translate(1183, 726)"><path fill="none" stroke="#4078bd" stroke-width="2" stroke-linecap="round" stroke-linejoin="round" d="M 0 0 L 78 0"/></g>
<g id="p8:17" transform="translate(1248.5, 718.5)"><defs><symbol id="svgicon-p8-17" viewBox="0 0 15 15"><g transform="translate(-1248.5 -718.5)"><polygon points="1261,726 1251,721 1251,731" fill="#4078BD" /></g></symbol></defs><use href="#svgicon-p8-17" x="0" y="0" width="15" height="15"/></g>
<g id="o8:15" transform="translate(52, 675)"><rect x="0" y="0" width="252" height="108" fill="#f3f7fc" stroke="#4078bd" stroke-width="2" rx="6" ry="6"/></g>
<g id="a8:27" transform="translate(76, 681.9405)"><text font-size="23" font-family="Noto Sans SC" font-weight="bold" fill="#326cae" text-anchor="start" dominant-baseline="alphabetic" x="0"><tspan x="0" y="27.06"><tspan x="0" text-anchor="start">首层 input_norm</tspan></tspan></text></g>
<g id="a8:28" transform="translate(76, 715.117)"><text font-size="22" font-family="Noto Sans SC" font-weight="normal" fill="#326cae" text-anchor="start" dominant-baseline="alphabetic" x="0"><tspan x="0" y="25.883"><tspan x="0" text-anchor="start">h = Norm1(x)</tspan></tspan></text></g>
<g id="a8:29" transform="translate(76, 746.47)"><text font-size="20" font-family="Noto Sans SC" font-weight="normal" fill="#2e7963" text-anchor="start" dominant-baseline="alphabetic" x="0"><tspan x="0" y="23.53"><tspan x="0" text-anchor="start">r = x（直接保留）</tspan></tspan></text></g>
<g id="o8:16" transform="translate(382, 675)"><rect x="0" y="0" width="186" height="108" fill="#f3f7fc" stroke="#4078bd" stroke-width="2" rx="6" ry="6"/></g>
<g id="a8:30" transform="translate(406, 686.9405)"><text font-size="23" font-family="Noto Sans SC" font-weight="bold" fill="#326cae" text-anchor="start" dominant-baseline="alphabetic" x="0"><tspan x="0" y="27.06"><tspan x="0" text-anchor="start">Attention</tspan></tspan></text></g>
<g id="a8:31" transform="translate(406, 729.2935)"><text font-size="21" font-family="Noto Sans SC" font-weight="normal" fill="#326cae" text-anchor="start" dominant-baseline="alphabetic" x="0"><tspan x="0" y="24.707"><tspan x="0" text-anchor="start">h = Attn(h)</tspan></tspan></text></g>
<g id="o8:17" transform="translate(646, 675)"><rect x="0" y="0" width="273" height="108" fill="#f7f4fb" stroke="#8d76b7" stroke-width="2" rx="6" ry="6"/></g>
<g id="a8:32" transform="translate(670, 681.9405)"><text font-size="23" font-family="Noto Sans SC" font-weight="bold" fill="#65537f" text-anchor="start" dominant-baseline="alphabetic" x="0"><tspan x="0" y="27.06"><tspan x="0" text-anchor="start">post_norm · 融合</tspan></tspan></text></g>
<g id="a8:33" transform="translate(670, 715.117)"><text font-size="22" font-family="Noto Sans SC" font-weight="normal" fill="#2e7963" text-anchor="start" dominant-baseline="alphabetic" x="0"><tspan x="0" y="25.883"><tspan x="0" text-anchor="start">r = r + h = a</tspan></tspan></text></g>
<g id="a8:34" transform="translate(670, 744.117)"><text font-size="22" font-family="Noto Sans SC" font-weight="normal" fill="#326cae" text-anchor="start" dominant-baseline="alphabetic" x="0"><tspan x="0" y="25.883"><tspan x="0" text-anchor="start">h = Norm2(r)</tspan></tspan></text></g>
<g id="o8:18" transform="translate(997, 675)"><rect x="0" y="0" width="186" height="108" fill="#f3f7fc" stroke="#4078bd" stroke-width="2" rx="6" ry="6"/></g>
<g id="a8:35" transform="translate(1064, 686.9405)"><text font-size="23" font-family="Noto Sans SC" font-weight="bold" fill="#326cae" text-anchor="start" dominant-baseline="alphabetic" x="0"><tspan x="0" y="27.06"><tspan x="0" text-anchor="start">MLP</tspan></tspan></text></g>
<g id="a8:36" transform="translate(1021, 729.2935)"><text font-size="21" font-family="Noto Sans SC" font-weight="normal" fill="#326cae" text-anchor="start" dominant-baseline="alphabetic" x="0"><tspan x="0" y="24.707"><tspan x="0" text-anchor="start">h = MLP(h)</tspan></tspan></text></g>
<g id="o8:19" transform="translate(1261, 675)"><rect x="0" y="0" width="287" height="108" fill="#f3f7fc" stroke="#4078bd" stroke-width="2" rx="6" ry="6"/></g>
<g id="a8:37" transform="translate(1285, 681.9405)"><text font-size="23" font-family="Noto Sans SC" font-weight="bold" fill="#326cae" text-anchor="start" dominant-baseline="alphabetic" x="0"><tspan x="0" y="27.06"><tspan x="0" text-anchor="start">返回 h</tspan></tspan></text></g>
<g id="a8:38" transform="translate(1285, 722.2935)"><text font-size="21" font-family="Noto Sans SC" font-weight="normal" fill="#326cae" text-anchor="start" dominant-baseline="alphabetic" x="0"><tspan x="0" y="24.707"><tspan x="0" text-anchor="start">MLP(Norm2(a))</tspan></tspan></text></g>
<g id="c8:19" transform="translate(178, 783)"><path fill="none" stroke="#39826d" stroke-width="2" stroke-linecap="round" stroke-linejoin="round" d="M 0 0 L 0 58 L 517 58 L 517 0"/></g>
<g id="p8:18" transform="translate(687.5, 780.5)"><defs><symbol id="svgicon-p8-18" viewBox="0 0 15 15"><g transform="translate(-687.5 -780.5)"><polygon points="695,783 690,793 700,793" fill="#39826D" /></g></symbol></defs><use href="#svgicon-p8-18" x="0" y="0" width="15" height="15"/></g>
<g id="a8:39" transform="translate(302, 801.2935)"><text font-size="21" font-family="Noto Sans SC" font-weight="normal" fill="#2e7963" text-anchor="start" dominant-baseline="alphabetic" x="0"><tspan x="0" y="24.707"><tspan x="0" text-anchor="start">r = x；绕过 Attention</tspan></tspan></text></g>
<g id="c8:20" transform="translate(870, 783)"><path fill="none" stroke="#39826d" stroke-width="2" stroke-linecap="round" stroke-linejoin="round" d="M 0 0 L 0 111 L 391 111"/></g>
<g id="p8:19" transform="translate(1248.5, 886.5)"><defs><symbol id="svgicon-p8-19" viewBox="0 0 15 15"><g transform="translate(-1248.5 -886.5)"><polygon points="1261,894 1251,889 1251,899" fill="#39826D" /></g></symbol></defs><use href="#svgicon-p8-19" x="0" y="0" width="15" height="15"/></g>
<g id="a8:40" transform="translate(945, 853.2935)"><text font-size="21" font-family="Noto Sans SC" font-weight="normal" fill="#2e7963" text-anchor="start" dominant-baseline="alphabetic" x="0"><tspan x="0" y="24.707"><tspan x="0" text-anchor="start">r = a；绕过 MLP</tspan></tspan></text></g>
<g id="o8:20" transform="translate(1261, 842)"><rect x="0" y="0" width="287" height="94" fill="#f0f7f3" stroke="#39826d" stroke-width="2" rx="6" ry="6"/></g>
<g id="a8:41" transform="translate(1285, 848.9405)"><text font-size="23" font-family="Noto Sans SC" font-weight="bold" fill="#2e7963" text-anchor="start" dominant-baseline="alphabetic" x="0"><tspan x="0" y="27.06"><tspan x="0" text-anchor="start">返回 r</tspan></tspan></text></g>
<g id="a8:42" transform="translate(1285, 887.2935)"><text font-size="21" font-family="Noto Sans SC" font-weight="normal" fill="#2e7963" text-anchor="start" dominant-baseline="alphabetic" x="0"><tspan x="0" y="24.707"><tspan x="0" text-anchor="start">a = x + Attention(...)</tspan></tspan></text></g>
<g id="a8:43" transform="translate(52, 883.117)"><text font-size="22" font-family="Noto Sans SC" font-weight="normal" fill="#65537f" text-anchor="start" dominant-baseline="alphabetic" x="0"><tspan x="0" y="25.883"><tspan x="0" text-anchor="start">此时返回 (h, r)，还没有显式构造 y = r + h。</tspan></tspan></text></g>
<g id="c8:21" transform="translate(1510, 726)"><path fill="none" stroke="#4078bd" stroke-width="2" stroke-linecap="round" stroke-linejoin="round" d="M 38 0 L 63 0 L 63 230 L 0 230 L 0 251"/></g>
<g id="p8:20" transform="translate(1502.5, 964.5)"><defs><symbol id="svgicon-p8-20" viewBox="0 0 15 15"><g transform="translate(-1502.5 -964.5)"><polygon points="1510,977 1505,967 1515,967" fill="#4078BD" /></g></symbol></defs><use href="#svgicon-p8-20" x="0" y="0" width="15" height="15"/></g>
<g id="o8:21" transform="translate(52, 977)"><rect x="0" y="0" width="1496" height="164" fill="#faf7ef" stroke="#ac9c76" stroke-width="2" rx="6" ry="6"/></g>
<g id="a8:44" transform="translate(77, 990.764)"><text font-size="24" font-family="Noto Sans SC" font-weight="bold" fill="#877951" text-anchor="start" dominant-baseline="alphabetic" x="0"><tspan x="0" y="28.236"><tspan x="0" text-anchor="start">第二次相加发生在哪里？</tspan></tspan></text></g>
<g id="c8:22" transform="translate(1405, 936)"><path fill="none" stroke="#ac9c76" stroke-width="2" stroke-linecap="round" stroke-linejoin="round" d="M 0 0 L 0 41"/></g>
<g id="p8:21" transform="translate(1397.5, 964.5)"><defs><symbol id="svgicon-p8-21" viewBox="0 0 15 15"><g transform="translate(-1397.5 -964.5)"><polygon points="1405,977 1400,967 1410,967" fill="#AC9C76" /></g></symbol></defs><use href="#svgicon-p8-21" x="0" y="0" width="15" height="15"/></g>
<g id="a8:45" transform="translate(77, 1034.9406)"><text font-size="23" font-family="Noto Sans SC" font-weight="normal" fill="#1f2d3d" text-anchor="start" dominant-baseline="alphabetic" x="0"><tspan x="0" y="27.06"><tspan x="0" text-anchor="start">还有下一层：input_norm(h, r)</tspan></tspan></text></g>
<g id="a8:46" transform="translate(680, 1034.9406)"><text font-size="23" font-family="Noto Sans SC" font-weight="normal" fill="#1f2d3d" text-anchor="start" dominant-baseline="alphabetic" x="0"><tspan x="0" y="27.06"><tspan x="0" text-anchor="start">先 r ← r + h = y，再 h ← Norm1(r)</tspan></tspan></text></g>
<g id="a8:47" transform="translate(77, 1077.9406)"><text font-size="23" font-family="Noto Sans SC" font-weight="normal" fill="#1f2d3d" text-anchor="start" dominant-baseline="alphabetic" x="0"><tspan x="0" y="27.06"><tspan x="0" text-anchor="start">第 28 层结束：最终 norm(h, r)</tspan></tspan></text></g>
<g id="a8:48" transform="translate(680, 1077.9406)"><text font-size="23" font-family="Noto Sans SC" font-weight="normal" fill="#1f2d3d" text-anchor="start" dominant-baseline="alphabetic" x="0"><tspan x="0" y="27.06"><tspan x="0" text-anchor="start">先相加得到 y，再输出 Norm(y)</tspan></tspan></text></g>
<g id="a8:49" transform="translate(52, 1158.2935)"><text font-size="21" font-family="Noto Sans SC" font-weight="normal" fill="#657386" text-anchor="start" dominant-baseline="alphabetic" x="0"><tspan x="0" y="24.707"><tspan x="0" text-anchor="start">改变的是加法与 RMSNorm 的执行位置，不是数学结构；r 也不是 KV Cache。Attention / MLP 的输入输出都回到 1024 维。</tspan></tspan></text></g>
</svg>