<svg xmlns="http://www.w3.org/2000/svg"
     width="1740"
     height="890"
     viewBox="-20 -20 1740 890">
  <defs>
<marker id="connector-arrow-0" markerUnits="userSpaceOnUse" markerWidth="40" markerHeight="40" refX="7" refY="0" orient="auto" overflow="visible"><path fill="none" stroke="#cfd8e2" stroke-width="2" stroke-linecap="round" stroke-linejoin="round" d="M 0 -6 L 6 0 L 0 6 M 0 0 L 6 0"/></marker>
<marker id="connector-arrow-1" markerUnits="userSpaceOnUse" markerWidth="40" markerHeight="40" refX="7" refY="0" orient="auto" overflow="visible"><path fill="none" stroke="#657386" stroke-width="2" stroke-linecap="round" stroke-linejoin="round" d="M 0 -6 L 6 0 L 0 6 M 0 0 L 6 0"/></marker>
<marker id="connector-arrow-2" markerUnits="userSpaceOnUse" markerWidth="40" markerHeight="40" refX="7" refY="0" orient="auto" overflow="visible"><path fill="none" stroke="#657386" stroke-width="2" stroke-linecap="round" stroke-linejoin="round" d="M 0 -6 L 6 0 L 0 6 M 0 0 L 6 0"/></marker>
<marker id="connector-arrow-3" markerUnits="userSpaceOnUse" markerWidth="40" markerHeight="40" refX="7" refY="0" orient="auto" overflow="visible"><path fill="none" stroke="#657386" stroke-width="2" stroke-linecap="round" stroke-linejoin="round" d="M 0 -6 L 6 0 L 0 6 M 0 0 L 6 0"/></marker>
<marker id="connector-arrow-4" markerUnits="userSpaceOnUse" markerWidth="40" markerHeight="40" refX="7" refY="0" orient="auto" overflow="visible"><path fill="none" stroke="#657386" stroke-width="2" stroke-linecap="round" stroke-linejoin="round" d="M 0 -6 L 6 0 L 0 6 M 0 0 L 6 0"/></marker>
<marker id="connector-arrow-5" markerUnits="userSpaceOnUse" markerWidth="40" markerHeight="40" refX="7" refY="0" orient="auto" overflow="visible"><path fill="none" stroke="#657386" stroke-width="2" stroke-linecap="round" stroke-linejoin="round" d="M 0 -6 L 6 0 L 0 6 M 0 0 L 6 0"/></marker>
<marker id="connector-arrow-6" markerUnits="userSpaceOnUse" markerWidth="40" markerHeight="40" refX="7" refY="0" orient="auto" overflow="visible"><path fill="none" stroke="#657386" stroke-width="2" stroke-linecap="round" stroke-linejoin="round" d="M 0 -6 L 6 0 L 0 6 M 0 0 L 6 0"/></marker>
<marker id="connector-arrow-7" markerUnits="userSpaceOnUse" markerWidth="40" markerHeight="40" refX="7" refY="0" orient="auto" overflow="visible"><path fill="none" stroke="#4078bd" stroke-width="2" stroke-linecap="round" stroke-linejoin="round" d="M 0 -6 L 6 0 L 0 6 M 0 0 L 6 0"/></marker>
<marker id="connector-arrow-8" markerUnits="userSpaceOnUse" markerWidth="40" markerHeight="40" refX="7" refY="0" orient="auto" overflow="visible"><path fill="none" stroke="#39826d" stroke-width="2" stroke-linecap="round" stroke-linejoin="round" d="M 0 -6 L 6 0 L 0 6 M 0 0 L 6 0"/></marker>
<marker id="connector-arrow-9" markerUnits="userSpaceOnUse" markerWidth="40" markerHeight="40" refX="7" refY="0" orient="auto" overflow="visible"><path fill="none" stroke="#39826d" stroke-width="2" stroke-linecap="round" stroke-linejoin="round" d="M 0 -6 L 6 0 L 0 6 M 0 0 L 6 0"/></marker>
<marker id="connector-arrow-10" markerUnits="userSpaceOnUse" markerWidth="40" markerHeight="40" refX="7" refY="0" orient="auto" overflow="visible"><path fill="none" stroke="#8d76b7" stroke-width="2" stroke-linecap="round" stroke-linejoin="round" d="M 0 -6 L 6 0 L 0 6 M 0 0 L 6 0"/></marker>
<marker id="connector-arrow-11" markerUnits="userSpaceOnUse" markerWidth="40" markerHeight="40" refX="7" refY="0" orient="auto" overflow="visible"><path fill="none" stroke="#8d76b7" stroke-width="2" stroke-linecap="round" stroke-linejoin="round" d="M 0 -6 L 6 0 L 0 6 M 0 0 L 6 0"/></marker>
<marker id="connector-arrow-12" markerUnits="userSpaceOnUse" markerWidth="40" markerHeight="40" refX="7" refY="0" orient="auto" overflow="visible"><path fill="none" stroke="#39826d" stroke-width="2" stroke-linecap="round" stroke-linejoin="round" d="M 0 -6 L 6 0 L 0 6 M 0 0 L 6 0"/></marker>
<marker id="connector-arrow-13" markerUnits="userSpaceOnUse" markerWidth="40" markerHeight="40" refX="7" refY="0" orient="auto" overflow="visible"><path fill="none" stroke="#a9b5c2" stroke-width="2" stroke-linecap="round" stroke-linejoin="round" d="M 0 -6 L 6 0 L 0 6 M 0 0 L 6 0"/></marker>
<marker id="connector-arrow-14" markerUnits="userSpaceOnUse" markerWidth="40" markerHeight="40" refX="7" refY="0" orient="auto" overflow="visible"><path fill="none" stroke="#a9b5c2" stroke-width="2" stroke-linecap="round" stroke-linejoin="round" d="M 0 -6 L 6 0 L 0 6 M 0 0 L 6 0"/></marker>
  </defs>
<g id="o1:1" transform="translate(0, 0)"><rect x="0" y="0" width="1700" height="850" fill="#ffffff" stroke="none" stroke-width="0" rx="0" ry="0"/></g>
<g id="a1:1" transform="translate(40, 22.999)"><text font-size="34" font-family="Noto Sans SC" font-weight="bold" fill="#1f2d3d" text-anchor="start" dominant-baseline="alphabetic" x="0"><tspan x="0" y="40.001"><tspan x="0" text-anchor="start">从并行开始，逐步学会推理系统</tspan></tspan></text></g>
<g id="a1:2" transform="translate(40, 78.2935)"><text font-size="21" font-family="Noto Sans SC" font-weight="normal" fill="#657386" text-anchor="start" dominant-baseline="alphabetic" x="0"><tspan x="0" y="24.707"><tspan x="0" text-anchor="start">nano-vLLM 学习路线：每一步都能观察、解释和验证</tspan></tspan></text></g>
<g id="c1:1" transform="translate(40, 132)"><path fill="none" stroke="#dee5ec" stroke-width="2" stroke-linecap="round" stroke-linejoin="round" d="M 0 0 L 1620 0"/></g>
<g id="a1:3" transform="translate(40, 155.823)"><text font-size="18" font-family="Noto Sans SC" font-weight="normal" fill="#657386" text-anchor="start" dominant-baseline="alphabetic" x="0"><tspan x="0" y="21.177"><tspan x="0" text-anchor="start">从简单到复杂</tspan></tspan></text></g>
<g id="c1:2" transform="translate(190, 169)"><path fill="none" stroke="#cfd8e2" stroke-width="2" stroke-linecap="butt" stroke-linejoin="round" marker-end="url(#connector-arrow-0)" stroke-dasharray="0 0 1463 7" d="M 0 0 L 1470 0"/></g>
<g id="c1:3" transform="translate(270, 456)"><path fill="none" stroke="#657386" stroke-width="2" stroke-dasharray="4 4" marker-end="url(#connector-arrow-1)" d="M 0 0 L 55 0"/></g>
<g id="c1:4" transform="translate(575, 334)"><path fill="none" stroke="#657386" stroke-width="2" stroke-dasharray="4 4" marker-end="url(#connector-arrow-2)" d="M 0 122 L 33 122 L 33 0 L 70 0"/></g>
<g id="c1:5" transform="translate(575, 456)"><path fill="none" stroke="#657386" stroke-width="2" stroke-dasharray="4 4" marker-end="url(#connector-arrow-3)" d="M 0 0 L 33 0 L 33 134 L 70 134"/></g>
<g id="c1:6" transform="translate(955, 334)"><path fill="none" stroke="#657386" stroke-width="2" stroke-dasharray="4 4" marker-end="url(#connector-arrow-4)" d="M 0 0 L 37 0 L 37 122 L 75 122"/></g>
<g id="c1:7" transform="translate(955, 456)"><path fill="none" stroke="#657386" stroke-width="2" stroke-dasharray="4 4" marker-end="url(#connector-arrow-5)" d="M 0 134 L 37 134 L 37 0 L 75 0"/></g>
<g id="c1:8" transform="translate(1340, 456)"><path fill="none" stroke="#657386" stroke-width="2" stroke-dasharray="4 4" marker-end="url(#connector-arrow-6)" d="M 0 0 L 50 0"/></g>
<g id="o1:2" transform="translate(39, 343)"><rect x="0" y="0" width="232" height="226" fill="#f3f7fc" stroke="#4078bd" stroke-width="2" rx="6" ry="6"/></g>
<g id="a1:4" transform="translate(60, 357.176)"><text font-size="16" font-family="Noto Sans SC" font-weight="normal" fill="#326cae" text-anchor="start" dominant-baseline="alphabetic" x="0"><tspan x="0" y="18.824"><tspan x="0" text-anchor="start">起点 · 正确基线</tspan></tspan></text></g>
<g id="a1:5" transform="translate(60, 387.764)"><text font-size="24" font-family="Noto Sans SC" font-weight="bold" fill="#1f2d3d" text-anchor="start" dominant-baseline="alphabetic" x="0"><tspan x="0" y="28.236"><tspan x="0" text-anchor="start">单请求 · 单卡</tspan></tspan></text></g>
<g id="o1:3" transform="translate(62, 455)"><ellipse fill="#ffffff" stroke="#4078bd" stroke-width="2" cx="22" cy="22" rx="22" ry="22"/></g>
<g id="a1:6" transform="translate(78, 464.176)"><text font-size="16" font-family="Noto Sans SC" font-weight="normal" fill="#326cae" text-anchor="middle" dominant-baseline="alphabetic" x="6"><tspan x="6" y="18.824"><tspan x="1.56" text-anchor="start">1</tspan></tspan></text></g>
<g id="c1:9" transform="translate(108, 477)"><path fill="none" stroke="#4078bd" stroke-width="2" stroke-linecap="butt" stroke-linejoin="round" marker-end="url(#connector-arrow-7)" stroke-dasharray="0 0 42 7" d="M 0 0 L 49 0"/></g>
<g id="o1:4" transform="translate(159, 450)"><rect x="0" y="0" width="76" height="54" fill="#ffffff" stroke="#4078bd" stroke-width="2" rx="6" ry="6"/></g>
<g id="a1:7" transform="translate(171.5, 462.823)"><text font-size="18" font-family="Noto Sans SC" font-weight="bold" fill="#326cae" text-anchor="middle" dominant-baseline="alphabetic" x="25.5"><tspan x="25.5" y="21.177"><tspan x="6.31" text-anchor="start">GPU</tspan></tspan></text></g>
<g id="a1:8" transform="translate(60, 521.9995)"><text font-size="17" font-family="Noto Sans SC" font-weight="normal" fill="#657386" text-anchor="start" dominant-baseline="alphabetic" x="0"><tspan x="0" y="20.001"><tspan x="0" text-anchor="start">固定输入，核对输出</tspan></tspan></text></g>
<g id="o1:5" transform="translate(324, 343)"><rect x="0" y="0" width="252" height="226" fill="#f3f7fc" stroke="#4078bd" stroke-width="2" rx="6" ry="6"/></g>
<g id="a1:9" transform="translate(345, 357.176)"><text font-size="16" font-family="Noto Sans SC" font-weight="normal" fill="#326cae" text-anchor="start" dominant-baseline="alphabetic" x="0"><tspan x="0" y="18.824"><tspan x="0" text-anchor="start">1 · 现有能力</tspan></tspan></text></g>
<g id="a1:10" transform="translate(345, 387.764)"><text font-size="24" font-family="Noto Sans SC" font-weight="bold" fill="#1f2d3d" text-anchor="start" dominant-baseline="alphabetic" x="0"><tspan x="0" y="28.236"><tspan x="0" text-anchor="start">单卡合批</tspan></tspan></text></g>
<g id="o1:6" transform="translate(359, 442)"><rect x="0" y="0" width="183" height="68" fill="#ffffff" stroke="#4078bd" stroke-width="1" rx="6" ry="6"/></g>
<g id="a1:11" transform="translate(376, 444.529)"><text font-size="14" font-family="Noto Sans SC" font-weight="normal" fill="#326cae" text-anchor="start" dominant-baseline="alphabetic" x="0"><tspan x="0" y="16.471"><tspan x="0" text-anchor="start">A</tspan></tspan></text></g>
<g id="a1:12" transform="translate(376, 464.529)"><text font-size="14" font-family="Noto Sans SC" font-weight="normal" fill="#326cae" text-anchor="start" dominant-baseline="alphabetic" x="0"><tspan x="0" y="16.471"><tspan x="0" text-anchor="start">B</tspan></tspan></text></g>
<g id="a1:13" transform="translate(376, 484.529)"><text font-size="14" font-family="Noto Sans SC" font-weight="normal" fill="#326cae" text-anchor="start" dominant-baseline="alphabetic" x="0"><tspan x="0" y="16.471"><tspan x="0" text-anchor="start">C</tspan></tspan></text></g>
<g id="o1:7" transform="translate(398, 450)"><rect x="0" y="0" width="119" height="12" fill="#dde9f7" stroke="none" stroke-width="0" rx="5" ry="5"/></g>
<g id="o1:8" transform="translate(398, 470)"><rect x="0" y="0" width="119" height="12" fill="#dde9f7" stroke="none" stroke-width="0" rx="5" ry="5"/></g>
<g id="o1:9" transform="translate(398, 490)"><rect x="0" y="0" width="119" height="12" fill="#dde9f7" stroke="none" stroke-width="0" rx="5" ry="5"/></g>
<g id="a1:14" transform="translate(345, 521.9995)"><text font-size="17" font-family="Noto Sans SC" font-weight="normal" fill="#657386" text-anchor="start" dominant-baseline="alphabetic" x="0"><tspan x="0" y="20.001"><tspan x="0" text-anchor="start">N 个请求各一行 Decode</tspan></tspan></text></g>
<g id="a1:15" transform="translate(742.5, 196.823)"><text font-size="18" font-family="Noto Sans SC" font-weight="normal" fill="#657386" text-anchor="middle" dominant-baseline="alphabetic" x="57.5"><tspan x="57.5" y="21.177"><tspan x="3.5" text-anchor="start">两种多卡策略</tspan></tspan></text></g>
<g id="o1:10" transform="translate(644, 233)"><rect x="0" y="0" width="312" height="206" fill="#f0f7f3" stroke="#39826d" stroke-width="2" rx="6" ry="6"/></g>
<g id="a1:16" transform="translate(665, 247.176)"><text font-size="16" font-family="Noto Sans SC" font-weight="normal" fill="#2e7963" text-anchor="start" dominant-baseline="alphabetic" x="0"><tspan x="0" y="18.824"><tspan x="0" text-anchor="start">2 · 新增能力</tspan></tspan></text></g>
<g id="a1:17" transform="translate(665, 274.764)"><text font-size="24" font-family="Noto Sans SC" font-weight="bold" fill="#1f2d3d" text-anchor="start" dominant-baseline="alphabetic" x="0"><tspan x="0" y="28.236"><tspan x="0" text-anchor="start">多卡独立副本</tspan></tspan></text></g>
<g id="a1:18" transform="translate(679, 315.3525)"><text font-size="15" font-family="Noto Sans SC" font-weight="normal" fill="#2e7963" text-anchor="middle" dominant-baseline="alphabetic" x="6"><tspan x="6" y="17.648"><tspan x="1.44" text-anchor="start">A</tspan></tspan></text></g>
<g id="a1:19" transform="translate(808.5, 315.3525)"><text font-size="15" font-family="Noto Sans SC" font-weight="normal" fill="#2e7963" text-anchor="middle" dominant-baseline="alphabetic" x="6.5"><tspan x="6.5" y="17.648"><tspan x="1.57" text-anchor="start">B</tspan></tspan></text></g>
<g id="c1:10" transform="translate(685, 340)"><path fill="none" stroke="#39826d" stroke-width="2" stroke-linecap="butt" stroke-linejoin="round" marker-end="url(#connector-arrow-8)" stroke-dasharray="0 0 3 7" d="M 0 0 L 0 10"/></g>
<g id="c1:11" transform="translate(815, 340)"><path fill="none" stroke="#39826d" stroke-width="2" stroke-linecap="butt" stroke-linejoin="round" marker-end="url(#connector-arrow-9)" stroke-dasharray="0 0 3 7" d="M 0 0 L 0 10"/></g>
<g id="o1:11" transform="translate(665, 354)"><rect x="0" y="0" width="112" height="39" fill="#ffffff" stroke="#39826d" stroke-width="1" rx="6" ry="6"/></g>
<g id="o1:12" transform="translate(795, 354)"><rect x="0" y="0" width="112" height="39" fill="#ffffff" stroke="#39826d" stroke-width="1" rx="6" ry="6"/></g>
<g id="a1:20" transform="translate(684.5, 358.9995)"><text font-size="17" font-family="Noto Sans SC" font-weight="normal" fill="#2e7963" text-anchor="middle" dominant-baseline="alphabetic" x="36.5"><tspan x="36.5" y="20.001"><tspan x="2.5" text-anchor="start">完整模型</tspan></tspan></text></g>
<g id="a1:21" transform="translate(814.5, 358.9995)"><text font-size="17" font-family="Noto Sans SC" font-weight="normal" fill="#2e7963" text-anchor="middle" dominant-baseline="alphabetic" x="36.5"><tspan x="36.5" y="20.001"><tspan x="2.5" text-anchor="start">完整模型</tspan></tspan></text></g>
<g id="a1:22" transform="translate(665, 400.9995)"><text font-size="17" font-family="Noto Sans SC" font-weight="normal" fill="#657386" text-anchor="start" dominant-baseline="alphabetic" x="0"><tspan x="0" y="20.001"><tspan x="0" text-anchor="start">先隔离端口与共享内存</tspan></tspan></text></g>
<g id="a1:23" transform="translate(690.5, 447.176)"><text font-size="16" font-family="Noto Sans SC" font-weight="normal" fill="#657386" text-anchor="middle" dominant-baseline="alphabetic" x="109.5"><tspan x="109.5" y="18.824"><tspan x="5.5" text-anchor="start">分请求与分特征，可分别实验</tspan></tspan></text></g>
<g id="o1:13" transform="translate(644, 489)"><rect x="0" y="0" width="312" height="206" fill="#f7f4fb" stroke="#8d76b7" stroke-width="2" rx="6" ry="6"/></g>
<g id="a1:24" transform="translate(665, 503.176)"><text font-size="16" font-family="Noto Sans SC" font-weight="normal" fill="#65537f" text-anchor="start" dominant-baseline="alphabetic" x="0"><tspan x="0" y="18.824"><tspan x="0" text-anchor="start">3 · 现有能力</tspan></tspan></text></g>
<g id="a1:25" transform="translate(665, 530.764)"><text font-size="24" font-family="Noto Sans SC" font-weight="bold" fill="#1f2d3d" text-anchor="start" dominant-baseline="alphabetic" x="0"><tspan x="0" y="28.236"><tspan x="0" text-anchor="start">同一模型 TP</tspan></tspan></text></g>
<g id="o1:14" transform="translate(665, 580)"><rect x="0" y="0" width="112" height="39" fill="#ffffff" stroke="#8d76b7" stroke-width="1" rx="6" ry="6"/></g>
<g id="o1:15" transform="translate(795, 580)"><rect x="0" y="0" width="112" height="39" fill="#ffffff" stroke="#8d76b7" stroke-width="1" rx="6" ry="6"/></g>
<g id="a1:26" transform="translate(686.5, 584.9995)"><text font-size="17" font-family="Noto Sans SC" font-weight="normal" fill="#65537f" text-anchor="middle" dominant-baseline="alphabetic" x="34.5"><tspan x="34.5" y="20.001"><tspan x="2.38" text-anchor="start">特征片 0</tspan></tspan></text></g>
<g id="a1:27" transform="translate(816.5, 584.9995)"><text font-size="17" font-family="Noto Sans SC" font-weight="normal" fill="#65537f" text-anchor="middle" dominant-baseline="alphabetic" x="34.5"><tspan x="34.5" y="20.001"><tspan x="2.38" text-anchor="start">特征片 1</tspan></tspan></text></g>
<g id="c1:12" transform="translate(721, 623)"><path fill="none" stroke="#8d76b7" stroke-width="2" stroke-linecap="butt" stroke-linejoin="round" marker-end="url(#connector-arrow-10)" stroke-dasharray="0 0 33 7" d="M 0 0 L 0 16 L 24 16"/></g>
<g id="c1:13" transform="translate(835, 623)"><path fill="none" stroke="#8d76b7" stroke-width="2" stroke-linecap="butt" stroke-linejoin="round" marker-end="url(#connector-arrow-11)" stroke-dasharray="0 0 25 7" d="M 16 0 L 16 16 L 0 16"/></g>
<g id="a1:28" transform="translate(754.5, 629.529)"><text font-size="14" font-family="Noto Sans SC" font-weight="normal" fill="#65537f" text-anchor="middle" dominant-baseline="alphabetic" x="35.5"><tspan x="35.5" y="16.471"><tspan x="2.77" text-anchor="start">all-reduce</tspan></tspan></text></g>
<g id="a1:29" transform="translate(665, 656.9995)"><text font-size="17" font-family="Noto Sans SC" font-weight="normal" fill="#657386" text-anchor="start" dominant-baseline="alphabetic" x="0"><tspan x="0" y="20.001"><tspan x="0" text-anchor="start">对照 TP=1 与 TP=2</tspan></tspan></text></g>
<g id="o1:16" transform="translate(1029, 343)"><rect x="0" y="0" width="312" height="226" fill="#f0f7f3" stroke="#39826d" stroke-width="2" rx="6" ry="6"/></g>
<g id="a1:30" transform="translate(1050, 357.176)"><text font-size="16" font-family="Noto Sans SC" font-weight="normal" fill="#2e7963" text-anchor="start" dominant-baseline="alphabetic" x="0"><tspan x="0" y="18.824"><tspan x="0" text-anchor="start">4 · 新增能力</tspan></tspan></text></g>
<g id="a1:31" transform="translate(1050, 390.117)"><text font-size="22" font-family="Noto Sans SC" font-weight="bold" fill="#1f2d3d" text-anchor="start" dominant-baseline="alphabetic" x="0"><tspan x="0" y="25.883"><tspan x="0" text-anchor="start">异步入口 · 流式 / 取消</tspan></tspan></text></g>
<g id="o1:17" transform="translate(1065, 447)"><ellipse fill="#ffffff" stroke="#39826d" stroke-width="1" cx="7" cy="7" rx="7" ry="7"/></g>
<g id="o1:18" transform="translate(1065, 469)"><ellipse fill="#ffffff" stroke="#39826d" stroke-width="1" cx="7" cy="7" rx="7" ry="7"/></g>
<g id="o1:19" transform="translate(1065, 491)"><ellipse fill="#ffffff" stroke="#39826d" stroke-width="1" cx="7" cy="7" rx="7" ry="7"/></g>
<g id="c1:14" transform="translate(1084, 454)"><path fill="none" stroke="#39826d" stroke-width="2" stroke-linecap="butt" stroke-linejoin="round" marker-end="url(#connector-arrow-12)" stroke-dasharray="0 0 41 7" d="M 0 0 L 12 0 L 12 22 L 26 22"/></g>
<g id="c1:15" transform="translate(1084, 476)"><path fill="none" stroke="#39826d" stroke-width="2" stroke-linecap="round" stroke-linejoin="round" d="M 0 22 L 12 22 L 12 0"/></g>
<g id="c1:16" transform="translate(1084, 476)"><path fill="none" stroke="#39826d" stroke-width="2" stroke-linecap="round" stroke-linejoin="round" d="M 0 0 L 12 0"/></g>
<g id="o1:20" transform="translate(1115, 449)"><rect x="0" y="0" width="186" height="54" fill="#ffffff" stroke="#39826d" stroke-width="1" rx="6" ry="6"/></g>
<g id="a1:32" transform="translate(1136, 460.6465)"><text font-size="19" font-family="Noto Sans SC" font-weight="bold" fill="#2e7963" text-anchor="middle" dominant-baseline="alphabetic" x="72"><tspan x="72" y="22.354"><tspan x="15" text-anchor="start">一个执行循环</tspan></tspan></text></g>
<g id="a1:33" transform="translate(1050, 521.9995)"><text font-size="17" font-family="Noto Sans SC" font-weight="normal" fill="#657386" text-anchor="start" dominant-baseline="alphabetic" x="0"><tspan x="0" y="20.001"><tspan x="0" text-anchor="start">HTTP 并发进入；step 串行执行</tspan></tspan></text></g>
<g id="o1:21" transform="translate(1389, 343)"><rect x="0" y="0" width="272" height="226" fill="#faf7ef" stroke="#ac9c76" stroke-width="2" rx="6" ry="6"/></g>
<g id="a1:34" transform="translate(1410, 357.176)"><text font-size="16" font-family="Noto Sans SC" font-weight="normal" fill="#877951" text-anchor="start" dominant-baseline="alphabetic" x="0"><tspan x="0" y="18.824"><tspan x="0" text-anchor="start">5 · 定向优化</tspan></tspan></text></g>
<g id="a1:35" transform="translate(1410, 390.117)"><text font-size="22" font-family="Noto Sans SC" font-weight="bold" fill="#1f2d3d" text-anchor="start" dominant-baseline="alphabetic" x="0"><tspan x="0" y="25.883"><tspan x="0" text-anchor="start">调度、缓存、执行</tspan></tspan></text></g>
<g id="o1:22" transform="translate(1410, 452)"><rect x="0" y="0" width="64" height="48" fill="#ffffff" stroke="#ac9c76" stroke-width="1" rx="6" ry="6"/></g>
<g id="o1:23" transform="translate(1490, 452)"><rect x="0" y="0" width="64" height="48" fill="#ffffff" stroke="#ac9c76" stroke-width="1" rx="6" ry="6"/></g>
<g id="o1:24" transform="translate(1570, 452)"><rect x="0" y="0" width="64" height="48" fill="#ffffff" stroke="#ac9c76" stroke-width="1" rx="6" ry="6"/></g>
<g id="a1:36" transform="translate(1422, 460.823)"><text font-size="18" font-family="Noto Sans SC" font-weight="normal" fill="#877951" text-anchor="middle" dominant-baseline="alphabetic" x="20"><tspan x="20" y="21.177"><tspan x="2" text-anchor="start">调度</tspan></tspan></text></g>
<g id="a1:37" transform="translate(1502, 460.823)"><text font-size="18" font-family="Noto Sans SC" font-weight="normal" fill="#877951" text-anchor="middle" dominant-baseline="alphabetic" x="20"><tspan x="20" y="21.177"><tspan x="2" text-anchor="start">缓存</tspan></tspan></text></g>
<g id="a1:38" transform="translate(1582, 460.823)"><text font-size="18" font-family="Noto Sans SC" font-weight="normal" fill="#877951" text-anchor="middle" dominant-baseline="alphabetic" x="20"><tspan x="20" y="21.177"><tspan x="2" text-anchor="start">执行</tspan></tspan></text></g>
<g id="a1:39" transform="translate(1410, 521.9995)"><text font-size="17" font-family="Noto Sans SC" font-weight="normal" fill="#657386" text-anchor="start" dominant-baseline="alphabetic" x="0"><tspan x="0" y="20.001"><tspan x="0" text-anchor="start">按实测瓶颈，一次只选一项</tspan></tspan></text></g>
<g id="c1:17" transform="translate(40, 743)"><path fill="none" stroke="#dee5ec" stroke-width="2" stroke-linecap="round" stroke-linejoin="round" d="M 0 0 L 1620 0"/></g>
<g id="a1:40" transform="translate(40, 776.2935)"><text font-size="21" font-family="Noto Sans SC" font-weight="bold" fill="#326cae" text-anchor="start" dominant-baseline="alphabetic" x="0"><tspan x="0" y="24.707"><tspan x="0" text-anchor="start">现有能力先观测</tspan></tspan></text></g>
<g id="c1:18" transform="translate(228, 793)"><path fill="none" stroke="#a9b5c2" stroke-width="2" stroke-linecap="butt" stroke-linejoin="round" marker-end="url(#connector-arrow-13)" stroke-dasharray="0 0 58 7" d="M 0 0 L 65 0"/></g>
<g id="a1:41" transform="translate(316, 776.2935)"><text font-size="21" font-family="Noto Sans SC" font-weight="bold" fill="#2e7963" text-anchor="start" dominant-baseline="alphabetic" x="0"><tspan x="0" y="24.707"><tspan x="0" text-anchor="start">新增能力再改造</tspan></tspan></text></g>
<g id="c1:19" transform="translate(504, 793)"><path fill="none" stroke="#a9b5c2" stroke-width="2" stroke-linecap="butt" stroke-linejoin="round" marker-end="url(#connector-arrow-14)" stroke-dasharray="0 0 58 7" d="M 0 0 L 65 0"/></g>
<g id="a1:42" transform="translate(592, 776.2935)"><text font-size="21" font-family="Noto Sans SC" font-weight="bold" fill="#1f2d3d" text-anchor="start" dominant-baseline="alphabetic" x="0"><tspan x="0" y="24.707"><tspan x="0" text-anchor="start">每步先验正确，再测性能</tspan></tspan></text></g>
</svg>