<svg xmlns="http://www.w3.org/2000/svg"
     width="1480"
     height="1130"
     viewBox="-20 -20 1480 1130">
  <defs>
<marker id="connector-arrow-0" markerUnits="userSpaceOnUse" markerWidth="40" markerHeight="40" refX="11.258330249197702" refY="0" orient="auto" overflow="visible"><path fill="#ac9c76" stroke="none" d="M 11.258330249197702 0 L 0 -6.5 L 0 6.5 Z"/></marker>
<marker id="connector-arrow-1" markerUnits="userSpaceOnUse" markerWidth="40" markerHeight="40" refX="11.258330249197702" refY="0" orient="auto" overflow="visible"><path fill="#ac9c76" stroke="none" d="M 11.258330249197702 0 L 0 -6.5 L 0 6.5 Z"/></marker>
<marker id="connector-arrow-2" markerUnits="userSpaceOnUse" markerWidth="40" markerHeight="40" refX="11.258330249197702" refY="0" orient="auto" overflow="visible"><path fill="#ac9c76" stroke="none" d="M 11.258330249197702 0 L 0 -6.5 L 0 6.5 Z"/></marker>
<marker id="connector-arrow-3" markerUnits="userSpaceOnUse" markerWidth="40" markerHeight="40" refX="11.258330249197702" refY="0" orient="auto" overflow="visible"><path fill="#ac9c76" stroke="none" d="M 11.258330249197702 0 L 0 -6.5 L 0 6.5 Z"/></marker>
<marker id="connector-arrow-4" markerUnits="userSpaceOnUse" markerWidth="40" markerHeight="40" refX="11.258330249197702" refY="0" orient="auto" overflow="visible"><path fill="#ac9c76" stroke="none" d="M 11.258330249197702 0 L 0 -6.5 L 0 6.5 Z"/></marker>
<marker id="connector-arrow-5" markerUnits="userSpaceOnUse" markerWidth="40" markerHeight="40" refX="11.258330249197702" refY="0" orient="auto" overflow="visible"><path fill="#ac9c76" stroke="none" d="M 11.258330249197702 0 L 0 -6.5 L 0 6.5 Z"/></marker>
<marker id="connector-arrow-6" markerUnits="userSpaceOnUse" markerWidth="40" markerHeight="40" refX="11.258330249197702" refY="0" orient="auto" overflow="visible"><path fill="#ac9c76" stroke="none" d="M 11.258330249197702 0 L 0 -6.5 L 0 6.5 Z"/></marker>
<marker id="connector-arrow-7" markerUnits="userSpaceOnUse" markerWidth="40" markerHeight="40" refX="11.258330249197702" refY="0" orient="auto" overflow="visible"><path fill="#ac9c76" stroke="none" d="M 11.258330249197702 0 L 0 -6.5 L 0 6.5 Z"/></marker>
<marker id="connector-arrow-8" markerUnits="userSpaceOnUse" markerWidth="40" markerHeight="40" refX="11.258330249197702" refY="0" orient="auto" overflow="visible"><path fill="#657386" stroke="none" d="M 11.258330249197702 0 L 0 -6.5 L 0 6.5 Z"/></marker>
<marker id="connector-arrow-9" markerUnits="userSpaceOnUse" markerWidth="40" markerHeight="40" refX="11.258330249197702" refY="0" orient="auto" overflow="visible"><path fill="#657386" stroke="none" d="M 11.258330249197702 0 L 0 -6.5 L 0 6.5 Z"/></marker>
<marker id="connector-arrow-10" markerUnits="userSpaceOnUse" markerWidth="40" markerHeight="40" refX="11.258330249197702" refY="0" orient="auto" overflow="visible"><path fill="#657386" stroke="none" d="M 11.258330249197702 0 L 0 -6.5 L 0 6.5 Z"/></marker>
<marker id="connector-arrow-11" markerUnits="userSpaceOnUse" markerWidth="40" markerHeight="40" refX="11.258330249197702" refY="0" orient="auto" overflow="visible"><path fill="#657386" stroke="none" d="M 11.258330249197702 0 L 0 -6.5 L 0 6.5 Z"/></marker>
<marker id="connector-arrow-12" markerUnits="userSpaceOnUse" markerWidth="40" markerHeight="40" refX="11.258330249197702" refY="0" orient="auto" overflow="visible"><path fill="#657386" stroke="none" d="M 11.258330249197702 0 L 0 -6.5 L 0 6.5 Z"/></marker>
<marker id="connector-arrow-13" markerUnits="userSpaceOnUse" markerWidth="40" markerHeight="40" refX="11.258330249197702" refY="0" orient="auto" overflow="visible"><path fill="#657386" stroke="none" d="M 11.258330249197702 0 L 0 -6.5 L 0 6.5 Z"/></marker>
<marker id="connector-arrow-14" markerUnits="userSpaceOnUse" markerWidth="40" markerHeight="40" refX="11.258330249197702" refY="0" orient="auto" overflow="visible"><path fill="#657386" stroke="none" d="M 11.258330249197702 0 L 0 -6.5 L 0 6.5 Z"/></marker>
<marker id="connector-arrow-15" markerUnits="userSpaceOnUse" markerWidth="40" markerHeight="40" refX="11.258330249197702" refY="0" orient="auto" overflow="visible"><path fill="#657386" stroke="none" d="M 11.258330249197702 0 L 0 -6.5 L 0 6.5 Z"/></marker>
<marker id="connector-arrow-16" markerUnits="userSpaceOnUse" markerWidth="40" markerHeight="40" refX="11.258330249197702" refY="0" orient="auto" overflow="visible"><path fill="#657386" stroke="none" d="M 11.258330249197702 0 L 0 -6.5 L 0 6.5 Z"/></marker>
<marker id="connector-arrow-17" markerUnits="userSpaceOnUse" markerWidth="40" markerHeight="40" refX="11.258330249197702" refY="0" orient="auto" overflow="visible"><path fill="#657386" stroke="none" d="M 11.258330249197702 0 L 0 -6.5 L 0 6.5 Z"/></marker>
<marker id="connector-arrow-18" markerUnits="userSpaceOnUse" markerWidth="40" markerHeight="40" refX="11.258330249197702" refY="0" orient="auto" overflow="visible"><path fill="#657386" stroke="none" d="M 11.258330249197702 0 L 0 -6.5 L 0 6.5 Z"/></marker>
<marker id="connector-arrow-19" markerUnits="userSpaceOnUse" markerWidth="40" markerHeight="40" refX="11.258330249197702" refY="0" orient="auto" overflow="visible"><path fill="#657386" stroke="none" d="M 11.258330249197702 0 L 0 -6.5 L 0 6.5 Z"/></marker>
<marker id="connector-arrow-20" markerUnits="userSpaceOnUse" markerWidth="40" markerHeight="40" refX="11.258330249197702" refY="0" orient="auto" overflow="visible"><path fill="#657386" stroke="none" d="M 11.258330249197702 0 L 0 -6.5 L 0 6.5 Z"/></marker>
<marker id="connector-arrow-21" markerUnits="userSpaceOnUse" markerWidth="40" markerHeight="40" refX="11.258330249197702" refY="0" orient="auto" overflow="visible"><path fill="#657386" stroke="none" d="M 11.258330249197702 0 L 0 -6.5 L 0 6.5 Z"/></marker>
<marker id="connector-arrow-22" markerUnits="userSpaceOnUse" markerWidth="40" markerHeight="40" refX="11.258330249197702" refY="0" orient="auto" overflow="visible"><path fill="#657386" stroke="none" d="M 11.258330249197702 0 L 0 -6.5 L 0 6.5 Z"/></marker>
<marker id="connector-arrow-23" markerUnits="userSpaceOnUse" markerWidth="40" markerHeight="40" refX="11.258330249197702" refY="0" orient="auto" overflow="visible"><path fill="#657386" stroke="none" d="M 11.258330249197702 0 L 0 -6.5 L 0 6.5 Z"/></marker>
<marker id="connector-arrow-24" markerUnits="userSpaceOnUse" markerWidth="40" markerHeight="40" refX="11.258330249197702" refY="0" orient="auto" overflow="visible"><path fill="#8d76b7" stroke="none" d="M 11.258330249197702 0 L 0 -6.5 L 0 6.5 Z"/></marker>
<marker id="connector-arrow-25" markerUnits="userSpaceOnUse" markerWidth="40" markerHeight="40" refX="11.258330249197702" refY="0" orient="auto" overflow="visible"><path fill="#8d76b7" stroke="none" d="M 11.258330249197702 0 L 0 -6.5 L 0 6.5 Z"/></marker>
<marker id="connector-arrow-26" markerUnits="userSpaceOnUse" markerWidth="40" markerHeight="40" refX="11.258330249197702" refY="0" orient="auto" overflow="visible"><path fill="#8d76b7" stroke="none" d="M 11.258330249197702 0 L 0 -6.5 L 0 6.5 Z"/></marker>
<marker id="connector-arrow-27" markerUnits="userSpaceOnUse" markerWidth="40" markerHeight="40" refX="11.258330249197702" refY="0" orient="auto" overflow="visible"><path fill="#8d76b7" stroke="none" d="M 11.258330249197702 0 L 0 -6.5 L 0 6.5 Z"/></marker>
<marker id="connector-arrow-28" markerUnits="userSpaceOnUse" markerWidth="40" markerHeight="40" refX="11.258330249197702" refY="0" orient="auto" overflow="visible"><path fill="#39826d" stroke="none" d="M 11.258330249197702 0 L 0 -6.5 L 0 6.5 Z"/></marker>
<marker id="connector-arrow-29" markerUnits="userSpaceOnUse" markerWidth="40" markerHeight="40" refX="11.258330249197702" refY="0" orient="auto" overflow="visible"><path fill="#39826d" stroke="none" d="M 11.258330249197702 0 L 0 -6.5 L 0 6.5 Z"/></marker>
<marker id="connector-arrow-30" markerUnits="userSpaceOnUse" markerWidth="40" markerHeight="40" refX="11.258330249197702" refY="0" orient="auto" overflow="visible"><path fill="#39826d" stroke="none" d="M 11.258330249197702 0 L 0 -6.5 L 0 6.5 Z"/></marker>
<marker id="connector-arrow-31" markerUnits="userSpaceOnUse" markerWidth="40" markerHeight="40" refX="11.258330249197702" refY="0" orient="auto" overflow="visible"><path fill="#39826d" stroke="none" d="M 11.258330249197702 0 L 0 -6.5 L 0 6.5 Z"/></marker>
<marker id="connector-arrow-32" markerUnits="userSpaceOnUse" markerWidth="40" markerHeight="40" refX="11.258330249197702" refY="0" orient="auto" overflow="visible"><path fill="#39826d" stroke="none" d="M 11.258330249197702 0 L 0 -6.5 L 0 6.5 Z"/></marker>
<marker id="connector-arrow-33" markerUnits="userSpaceOnUse" markerWidth="40" markerHeight="40" refX="11.258330249197702" refY="0" orient="auto" overflow="visible"><path fill="#39826d" stroke="none" d="M 11.258330249197702 0 L 0 -6.5 L 0 6.5 Z"/></marker>
<marker id="connector-arrow-34" markerUnits="userSpaceOnUse" markerWidth="40" markerHeight="40" refX="11.258330249197702" refY="0" orient="auto" overflow="visible"><path fill="#39826d" stroke="none" d="M 11.258330249197702 0 L 0 -6.5 L 0 6.5 Z"/></marker>
<marker id="connector-arrow-35" markerUnits="userSpaceOnUse" markerWidth="40" markerHeight="40" refX="11.258330249197702" refY="0" orient="auto" overflow="visible"><path fill="#39826d" stroke="none" d="M 11.258330249197702 0 L 0 -6.5 L 0 6.5 Z"/></marker>
<marker id="connector-arrow-36" markerUnits="userSpaceOnUse" markerWidth="40" markerHeight="40" refX="11.258330249197702" refY="0" orient="auto" overflow="visible"><path fill="#39826d" stroke="none" d="M 11.258330249197702 0 L 0 -6.5 L 0 6.5 Z"/></marker>
<marker id="connector-arrow-37" markerUnits="userSpaceOnUse" markerWidth="40" markerHeight="40" refX="11.258330249197702" refY="0" orient="auto" overflow="visible"><path fill="#39826d" stroke="none" d="M 11.258330249197702 0 L 0 -6.5 L 0 6.5 Z"/></marker>
  </defs>
<g id="o1:71" transform="translate(0, 0)" fill-opacity="0"><rect x="0" y="0" width="1440" height="1090" fill="#ffffff" stroke="none" stroke-width="0" rx="0" ry="0"/></g>
<g id="a1:159" transform="translate(44, 14.705)"><text font-size="30" font-family="Noto Sans SC" font-weight="bold" fill="#1f2d3d" text-anchor="start" dominant-baseline="alphabetic" x="0"><tspan x="0" y="35.295"><tspan x="0" text-anchor="start">旧位置的计算，如何变成下一层可复用的 K/V？</tspan></tspan></text></g>
<g id="a1:160" transform="translate(44, 62.6465)"><text font-size="19" font-family="Noto Sans SC" font-weight="normal" fill="#657386" text-anchor="start" dominant-baseline="alphabetic" x="0"><tspan x="0" y="22.354"><tspan x="0" text-anchor="start">上一 Block 更新表示 → 下一 Block 生成自己的 K/V → Decode 的新位置直接读取。</tspan></tspan></text></g>
<g id="c1:81" transform="translate(44, 110)"><path fill="none" stroke="#dde4ec" stroke-width="2" stroke-linecap="round" stroke-linejoin="round" d="M 0 0 L 1352 0"/></g>
<g id="o1:72" transform="translate(44, 127)"><ellipse fill="#f3f7fc" stroke="#4078bd" stroke-width="1.5" cx="19" cy="19" rx="19" ry="19"/></g>
<g id="a1:161" transform="translate(54, 129.47)"><text font-size="20" font-family="Noto Sans SC" font-weight="bold" fill="#326cae" text-anchor="middle" dominant-baseline="alphabetic" x="9"><tspan x="9" y="23.53"><tspan x="3.1" text-anchor="start">1</tspan></tspan></text></g>
<g id="a1:162" transform="translate(96, 125.764)"><text font-size="24" font-family="Noto Sans SC" font-weight="bold" fill="#326cae" text-anchor="start" dominant-baseline="alphabetic" x="0"><tspan x="0" y="28.236"><tspan x="0" text-anchor="start">Prefill：旧位置逐层完成计算，为更深层准备 K/V</tspan></tspan></text></g>
<g id="a1:163" transform="translate(48, 171.823)"><text font-size="18" font-family="Noto Sans SC" font-weight="normal" fill="#657386" text-anchor="start" dominant-baseline="alphabetic" x="0"><tspan x="0" y="21.177"><tspan x="0" text-anchor="start">每行一个位置；Attention 读取本层可见位置的 K/V。Norm / 残差省略；Q/K/V 来自本层归一化后的输入。</tspan></tspan></text></g>
<g id="a1:164" transform="translate(180, 210.9405)"><text font-size="23" font-family="Noto Sans SC" font-weight="bold" fill="#326cae" text-anchor="start" dominant-baseline="alphabetic" x="0"><tspan x="0" y="27.06"><tspan x="0" text-anchor="start">Block 1</tspan></tspan></text></g>
<g id="a1:165" transform="translate(800, 210.9405)"><text font-size="23" font-family="Noto Sans SC" font-weight="bold" fill="#326cae" text-anchor="start" dominant-baseline="alphabetic" x="0"><tspan x="0" y="27.06"><tspan x="0" text-anchor="start">Block 2</tspan></tspan></text></g>
<g id="a1:166" transform="translate(190, 254.823)"><text font-size="18" font-family="Noto Sans SC" font-weight="normal" fill="#657386" text-anchor="middle" dominant-baseline="alphabetic" x="46"><tspan x="46" y="21.177"><tspan x="1.445" text-anchor="start">生成 Q/K/V</tspan></tspan></text></g>
<g id="a1:167" transform="translate(349, 254.823)"><text font-size="18" font-family="Noto Sans SC" font-weight="normal" fill="#657386" text-anchor="middle" dominant-baseline="alphabetic" x="36"><tspan x="36" y="21.177"><tspan x="-3.08" text-anchor="start">Attention</tspan></tspan></text></g>
<g id="a1:168" transform="translate(511, 254.823)"><text font-size="18" font-family="Noto Sans SC" font-weight="normal" fill="#657386" text-anchor="middle" dominant-baseline="alphabetic" x="19"><tspan x="19" y="21.177"><tspan x="1.11" text-anchor="start">MLP</tspan></tspan></text></g>
<g id="a1:169" transform="translate(631, 254.823)"><text font-size="18" font-family="Noto Sans SC" font-weight="normal" fill="#877951" text-anchor="middle" dominant-baseline="alphabetic" x="54"><tspan x="54" y="21.177"><tspan x="0" text-anchor="start">更新后的表示</tspan></tspan></text></g>
<g id="a1:170" transform="translate(810, 254.823)"><text font-size="18" font-family="Noto Sans SC" font-weight="normal" fill="#657386" text-anchor="middle" dominant-baseline="alphabetic" x="46"><tspan x="46" y="21.177"><tspan x="1.445" text-anchor="start">生成 Q/K/V</tspan></tspan></text></g>
<g id="a1:171" transform="translate(979, 254.823)"><text font-size="18" font-family="Noto Sans SC" font-weight="normal" fill="#657386" text-anchor="middle" dominant-baseline="alphabetic" x="36"><tspan x="36" y="21.177"><tspan x="-3.08" text-anchor="start">Attention</tspan></tspan></text></g>
<g id="a1:172" transform="translate(1141, 254.823)"><text font-size="18" font-family="Noto Sans SC" font-weight="normal" fill="#657386" text-anchor="middle" dominant-baseline="alphabetic" x="19"><tspan x="19" y="21.177"><tspan x="1.11" text-anchor="start">MLP</tspan></tspan></text></g>
<g id="a1:173" transform="translate(1261.5, 254.823)"><text font-size="18" font-family="Noto Sans SC" font-weight="normal" fill="#657386" text-anchor="middle" dominant-baseline="alphabetic" x="43.5"><tspan x="43.5" y="21.177"><tspan x="0.005" text-anchor="start">下一 Block</tspan></tspan></text></g>
<g id="o1:73" transform="translate(180, 292)"><rect x="0" y="0" width="112" height="178" fill="#f3f7fc" stroke="#4078bd" stroke-width="1.5" rx="8" ry="8"/></g>
<g id="o1:74" transform="translate(330, 292)"><rect x="0" y="0" width="110" height="178" fill="#f3f7fc" stroke="#4078bd" stroke-width="1.5" rx="8" ry="8"/></g>
<g id="o1:75" transform="translate(480, 292)"><rect x="0" y="0" width="100" height="178" fill="#f3f7fc" stroke="#4078bd" stroke-width="1.5" rx="8" ry="8"/></g>
<g id="o1:76" transform="translate(800, 292)"><rect x="0" y="0" width="112" height="178" fill="#f3f7fc" stroke="#4078bd" stroke-width="1.5" rx="8" ry="8"/></g>
<g id="o1:77" transform="translate(960, 292)"><rect x="0" y="0" width="110" height="178" fill="#f3f7fc" stroke="#4078bd" stroke-width="1.5" rx="8" ry="8"/></g>
<g id="o1:78" transform="translate(1110, 292)"><rect x="0" y="0" width="100" height="178" fill="#f3f7fc" stroke="#4078bd" stroke-width="1.5" rx="8" ry="8"/></g>
<g id="o1:79" transform="translate(182, 299)"><rect x="0" y="0" width="108" height="44" fill="#faf7ef" stroke="#ac9c76" stroke-width="1" rx="5" ry="5"/></g>
<g id="o1:80" transform="translate(332, 299)"><rect x="0" y="0" width="106" height="44" fill="#faf7ef" stroke="#ac9c76" stroke-width="1" rx="5" ry="5"/></g>
<g id="o1:81" transform="translate(482, 299)"><rect x="0" y="0" width="96" height="44" fill="#faf7ef" stroke="#ac9c76" stroke-width="1" rx="5" ry="5"/></g>
<g id="o1:82" transform="translate(802, 299)"><rect x="0" y="0" width="108" height="44" fill="#faf7ef" stroke="#ac9c76" stroke-width="1" rx="5" ry="5"/></g>
<g id="o1:83" transform="translate(962, 299)"><rect x="0" y="0" width="106" height="44" fill="#faf7ef" stroke="#ac9c76" stroke-width="1" rx="5" ry="5"/></g>
<g id="o1:84" transform="translate(1112, 299)"><rect x="0" y="0" width="96" height="44" fill="#faf7ef" stroke="#ac9c76" stroke-width="1" rx="5" ry="5"/></g>
<g id="o1:85" transform="translate(60, 299)"><rect x="0" y="0" width="58" height="44" fill="#faf7ef" stroke="#ac9c76" stroke-width="1.5" rx="6" ry="6"/></g>
<g id="o1:86" transform="translate(60, 359)"><rect x="0" y="0" width="58" height="44" fill="#f3f7fc" stroke="#4078bd" stroke-width="1.5" rx="6" ry="6"/></g>
<g id="o1:87" transform="translate(60, 419)"><rect x="0" y="0" width="58" height="44" fill="#f3f7fc" stroke="#4078bd" stroke-width="1.5" rx="6" ry="6"/></g>
<g id="a1:174" transform="translate(76, 303.2935)"><text font-size="21" font-family="Noto Sans SC" font-weight="bold" fill="#877951" text-anchor="middle" dominant-baseline="alphabetic" x="13"><tspan x="13" y="24.707"><tspan x="2.385" text-anchor="start">t1</tspan></tspan></text></g>
<g id="a1:175" transform="translate(80, 363.2935)"><text font-size="21" font-family="Noto Sans SC" font-weight="normal" fill="#326cae" text-anchor="middle" dominant-baseline="alphabetic" x="9"><tspan x="9" y="24.707"><tspan x="-0.785" text-anchor="start">t2</tspan></tspan></text></g>
<g id="a1:176" transform="translate(80, 423.2935)"><text font-size="21" font-family="Noto Sans SC" font-weight="normal" fill="#326cae" text-anchor="middle" dominant-baseline="alphabetic" x="9"><tspan x="9" y="24.707"><tspan x="-0.785" text-anchor="start">t3</tspan></tspan></text></g>
<g id="a1:177" transform="translate(191, 306.823)"><text font-size="18" font-family="Noto Sans SC" font-weight="bold" fill="#877951" text-anchor="middle" dominant-baseline="alphabetic" x="45"><tspan x="45" y="21.177"><tspan x="8.565" text-anchor="start">q1 k1 v1</tspan></tspan></text></g>
<g id="a1:178" transform="translate(200.5, 366.823)"><text font-size="18" font-family="Noto Sans SC" font-weight="normal" fill="#326cae" text-anchor="middle" dominant-baseline="alphabetic" x="35.5"><tspan x="35.5" y="21.177"><tspan x="1.245" text-anchor="start">q2 k2 v2</tspan></tspan></text></g>
<g id="a1:179" transform="translate(200.5, 426.823)"><text font-size="18" font-family="Noto Sans SC" font-weight="normal" fill="#326cae" text-anchor="middle" dominant-baseline="alphabetic" x="35.5"><tspan x="35.5" y="21.177"><tspan x="1.245" text-anchor="start">q3 k3 v3</tspan></tspan></text></g>
<g id="a1:180" transform="translate(370.5, 306.823)"><text font-size="18" font-family="Noto Sans SC" font-weight="bold" fill="#877951" text-anchor="middle" dominant-baseline="alphabetic" x="14.5"><tspan x="14.5" y="21.177"><tspan x="3.87" text-anchor="start">a1</tspan></tspan></text></g>
<g id="a1:181" transform="translate(374.5, 366.823)"><text font-size="18" font-family="Noto Sans SC" font-weight="normal" fill="#326cae" text-anchor="middle" dominant-baseline="alphabetic" x="10.5"><tspan x="10.5" y="21.177"><tspan x="0.44" text-anchor="start">a2</tspan></tspan></text></g>
<g id="a1:182" transform="translate(374.5, 426.823)"><text font-size="18" font-family="Noto Sans SC" font-weight="normal" fill="#326cae" text-anchor="middle" dominant-baseline="alphabetic" x="10.5"><tspan x="10.5" y="21.177"><tspan x="0.44" text-anchor="start">a3</tspan></tspan></text></g>
<g id="a1:183" transform="translate(518.5, 306.823)"><text font-size="18" font-family="Noto Sans SC" font-weight="bold" fill="#877951" text-anchor="middle" dominant-baseline="alphabetic" x="11.5"><tspan x="11.5" y="21.177"><tspan x="2.4" text-anchor="start">t1</tspan></tspan></text></g>
<g id="a1:184" transform="translate(522, 366.823)"><text font-size="18" font-family="Noto Sans SC" font-weight="normal" fill="#326cae" text-anchor="middle" dominant-baseline="alphabetic" x="8"><tspan x="8" y="21.177"><tspan x="-0.39" text-anchor="start">t2</tspan></tspan></text></g>
<g id="a1:185" transform="translate(522, 426.823)"><text font-size="18" font-family="Noto Sans SC" font-weight="normal" fill="#326cae" text-anchor="middle" dominant-baseline="alphabetic" x="8"><tspan x="8" y="21.177"><tspan x="-0.39" text-anchor="start">t3</tspan></tspan></text></g>
<g id="o1:88" transform="translate(620, 299)"><rect x="0" y="0" width="130" height="44" fill="#faf7ef" stroke="#ac9c76" stroke-width="1.5" rx="6" ry="6"/></g>
<g id="o1:89" transform="translate(620, 359)"><rect x="0" y="0" width="130" height="44" fill="#f3f7fc" stroke="#4078bd" stroke-width="1.3" rx="6" ry="6"/></g>
<g id="o1:90" transform="translate(620, 419)"><rect x="0" y="0" width="130" height="44" fill="#f3f7fc" stroke="#4078bd" stroke-width="1.3" rx="6" ry="6"/></g>
<g id="a1:186" transform="translate(626, 306.823)"><text font-size="18" font-family="Noto Sans SC" font-weight="bold" fill="#877951" text-anchor="middle" dominant-baseline="alphabetic" x="59"><tspan x="59" y="21.177"><tspan x="11.86" text-anchor="start">t1 的新向量</tspan></tspan></text></g>
<g id="a1:187" transform="translate(638, 366.823)"><text font-size="18" font-family="Noto Sans SC" font-weight="normal" fill="#326cae" text-anchor="middle" dominant-baseline="alphabetic" x="47"><tspan x="47" y="21.177"><tspan x="0.595" text-anchor="start">t2 的新向量</tspan></tspan></text></g>
<g id="a1:188" transform="translate(638, 426.823)"><text font-size="18" font-family="Noto Sans SC" font-weight="normal" fill="#326cae" text-anchor="middle" dominant-baseline="alphabetic" x="47"><tspan x="47" y="21.177"><tspan x="0.595" text-anchor="start">t3 的新向量</tspan></tspan></text></g>
<g id="a1:189" transform="translate(811, 306.823)"><text font-size="18" font-family="Noto Sans SC" font-weight="bold" fill="#877951" text-anchor="middle" dominant-baseline="alphabetic" x="45"><tspan x="45" y="21.177"><tspan x="8.565" text-anchor="start">q1 k1 v1</tspan></tspan></text></g>
<g id="a1:190" transform="translate(820.5, 366.823)"><text font-size="18" font-family="Noto Sans SC" font-weight="normal" fill="#326cae" text-anchor="middle" dominant-baseline="alphabetic" x="35.5"><tspan x="35.5" y="21.177"><tspan x="1.245" text-anchor="start">q2 k2 v2</tspan></tspan></text></g>
<g id="a1:191" transform="translate(820.5, 426.823)"><text font-size="18" font-family="Noto Sans SC" font-weight="normal" fill="#326cae" text-anchor="middle" dominant-baseline="alphabetic" x="35.5"><tspan x="35.5" y="21.177"><tspan x="1.245" text-anchor="start">q3 k3 v3</tspan></tspan></text></g>
<g id="a1:192" transform="translate(1000.5, 306.823)"><text font-size="18" font-family="Noto Sans SC" font-weight="bold" fill="#877951" text-anchor="middle" dominant-baseline="alphabetic" x="14.5"><tspan x="14.5" y="21.177"><tspan x="3.87" text-anchor="start">a1</tspan></tspan></text></g>
<g id="a1:193" transform="translate(1004.5, 366.823)"><text font-size="18" font-family="Noto Sans SC" font-weight="normal" fill="#326cae" text-anchor="middle" dominant-baseline="alphabetic" x="10.5"><tspan x="10.5" y="21.177"><tspan x="0.44" text-anchor="start">a2</tspan></tspan></text></g>
<g id="a1:194" transform="translate(1004.5, 426.823)"><text font-size="18" font-family="Noto Sans SC" font-weight="normal" fill="#326cae" text-anchor="middle" dominant-baseline="alphabetic" x="10.5"><tspan x="10.5" y="21.177"><tspan x="0.44" text-anchor="start">a3</tspan></tspan></text></g>
<g id="a1:195" transform="translate(1148.5, 306.823)"><text font-size="18" font-family="Noto Sans SC" font-weight="bold" fill="#877951" text-anchor="middle" dominant-baseline="alphabetic" x="11.5"><tspan x="11.5" y="21.177"><tspan x="2.4" text-anchor="start">t1</tspan></tspan></text></g>
<g id="a1:196" transform="translate(1152, 366.823)"><text font-size="18" font-family="Noto Sans SC" font-weight="normal" fill="#326cae" text-anchor="middle" dominant-baseline="alphabetic" x="8"><tspan x="8" y="21.177"><tspan x="-0.39" text-anchor="start">t2</tspan></tspan></text></g>
<g id="a1:197" transform="translate(1152, 426.823)"><text font-size="18" font-family="Noto Sans SC" font-weight="normal" fill="#326cae" text-anchor="middle" dominant-baseline="alphabetic" x="8"><tspan x="8" y="21.177"><tspan x="-0.39" text-anchor="start">t3</tspan></tspan></text></g>
<g id="a1:198" transform="translate(1258, 306.823)"><text font-size="18" font-family="Noto Sans SC" font-weight="normal" fill="#877951" text-anchor="middle" dominant-baseline="alphabetic" x="47"><tspan x="47" y="21.177"><tspan x="0.595" text-anchor="start">继续更新 t1</tspan></tspan></text></g>
<g id="a1:199" transform="translate(1258, 366.823)"><text font-size="18" font-family="Noto Sans SC" font-weight="normal" fill="#326cae" text-anchor="middle" dominant-baseline="alphabetic" x="47"><tspan x="47" y="21.177"><tspan x="0.595" text-anchor="start">继续更新 t2</tspan></tspan></text></g>
<g id="a1:200" transform="translate(1258, 426.823)"><text font-size="18" font-family="Noto Sans SC" font-weight="normal" fill="#326cae" text-anchor="middle" dominant-baseline="alphabetic" x="47"><tspan x="47" y="21.177"><tspan x="0.595" text-anchor="start">继续更新 t3</tspan></tspan></text></g>
<g id="c1:82" transform="translate(123, 321)"><path fill="none" stroke="#ac9c76" stroke-width="2" stroke-linecap="butt" stroke-linejoin="round" marker-end="url(#connector-arrow-0)" stroke-dasharray="0 0 37.7416697508023 11.258330249197702" d="M 0 0 L 49 0"/></g>
<g id="c1:83" transform="translate(297, 321)"><path fill="none" stroke="#ac9c76" stroke-width="2" stroke-linecap="butt" stroke-linejoin="round" marker-end="url(#connector-arrow-1)" stroke-dasharray="0 0 13.741669750802298 11.258330249197702" d="M 0 0 L 25 0"/></g>
<g id="c1:84" transform="translate(445, 321)"><path fill="none" stroke="#ac9c76" stroke-width="2" stroke-linecap="butt" stroke-linejoin="round" marker-end="url(#connector-arrow-2)" stroke-dasharray="0 0 15.741669750802298 11.258330249197702" d="M 0 0 L 27 0"/></g>
<g id="c1:85" transform="translate(585, 321)"><path fill="none" stroke="#ac9c76" stroke-width="2" stroke-linecap="butt" stroke-linejoin="round" marker-end="url(#connector-arrow-3)" stroke-dasharray="0 0 15.741669750802298 11.258330249197702" d="M 0 0 L 27 0"/></g>
<g id="c1:86" transform="translate(755, 321)"><path fill="none" stroke="#ac9c76" stroke-width="2" stroke-linecap="butt" stroke-linejoin="round" marker-end="url(#connector-arrow-4)" stroke-dasharray="0 0 25.7416697508023 11.258330249197702" d="M 0 0 L 37 0"/></g>
<g id="c1:87" transform="translate(917, 321)"><path fill="none" stroke="#ac9c76" stroke-width="2" stroke-linecap="butt" stroke-linejoin="round" marker-end="url(#connector-arrow-5)" stroke-dasharray="0 0 23.7416697508023 11.258330249197702" d="M 0 0 L 35 0"/></g>
<g id="c1:88" transform="translate(1075, 321)"><path fill="none" stroke="#ac9c76" stroke-width="2" stroke-linecap="butt" stroke-linejoin="round" marker-end="url(#connector-arrow-6)" stroke-dasharray="0 0 15.741669750802298 11.258330249197702" d="M 0 0 L 27 0"/></g>
<g id="c1:89" transform="translate(1215, 321)"><path fill="none" stroke="#ac9c76" stroke-width="2" stroke-linecap="butt" stroke-linejoin="round" marker-end="url(#connector-arrow-7)" stroke-dasharray="0 0 13.741669750802298 11.258330249197702" d="M 0 0 L 25 0"/></g>
<g id="c1:90" transform="translate(123, 381)"><path fill="none" stroke="#657386" stroke-width="2" stroke-linecap="butt" stroke-linejoin="round" marker-end="url(#connector-arrow-8)" stroke-dasharray="0 0 37.7416697508023 11.258330249197702" d="M 0 0 L 49 0"/></g>
<g id="c1:91" transform="translate(297, 381)"><path fill="none" stroke="#657386" stroke-width="2" stroke-linecap="butt" stroke-linejoin="round" marker-end="url(#connector-arrow-9)" stroke-dasharray="0 0 13.741669750802298 11.258330249197702" d="M 0 0 L 25 0"/></g>
<g id="c1:92" transform="translate(445, 381)"><path fill="none" stroke="#657386" stroke-width="2" stroke-linecap="butt" stroke-linejoin="round" marker-end="url(#connector-arrow-10)" stroke-dasharray="0 0 15.741669750802298 11.258330249197702" d="M 0 0 L 27 0"/></g>
<g id="c1:93" transform="translate(585, 381)"><path fill="none" stroke="#657386" stroke-width="2" stroke-linecap="butt" stroke-linejoin="round" marker-end="url(#connector-arrow-11)" stroke-dasharray="0 0 15.741669750802298 11.258330249197702" d="M 0 0 L 27 0"/></g>
<g id="c1:94" transform="translate(755, 381)"><path fill="none" stroke="#657386" stroke-width="2" stroke-linecap="butt" stroke-linejoin="round" marker-end="url(#connector-arrow-12)" stroke-dasharray="0 0 25.7416697508023 11.258330249197702" d="M 0 0 L 37 0"/></g>
<g id="c1:95" transform="translate(917, 381)"><path fill="none" stroke="#657386" stroke-width="2" stroke-linecap="butt" stroke-linejoin="round" marker-end="url(#connector-arrow-13)" stroke-dasharray="0 0 23.7416697508023 11.258330249197702" d="M 0 0 L 35 0"/></g>
<g id="c1:96" transform="translate(1075, 381)"><path fill="none" stroke="#657386" stroke-width="2" stroke-linecap="butt" stroke-linejoin="round" marker-end="url(#connector-arrow-14)" stroke-dasharray="0 0 15.741669750802298 11.258330249197702" d="M 0 0 L 27 0"/></g>
<g id="c1:97" transform="translate(1215, 381)"><path fill="none" stroke="#657386" stroke-width="2" stroke-linecap="butt" stroke-linejoin="round" marker-end="url(#connector-arrow-15)" stroke-dasharray="0 0 13.741669750802298 11.258330249197702" d="M 0 0 L 25 0"/></g>
<g id="c1:98" transform="translate(123, 441)"><path fill="none" stroke="#657386" stroke-width="2" stroke-linecap="butt" stroke-linejoin="round" marker-end="url(#connector-arrow-16)" stroke-dasharray="0 0 37.7416697508023 11.258330249197702" d="M 0 0 L 49 0"/></g>
<g id="c1:99" transform="translate(297, 441)"><path fill="none" stroke="#657386" stroke-width="2" stroke-linecap="butt" stroke-linejoin="round" marker-end="url(#connector-arrow-17)" stroke-dasharray="0 0 13.741669750802298 11.258330249197702" d="M 0 0 L 25 0"/></g>
<g id="c1:100" transform="translate(445, 441)"><path fill="none" stroke="#657386" stroke-width="2" stroke-linecap="butt" stroke-linejoin="round" marker-end="url(#connector-arrow-18)" stroke-dasharray="0 0 15.741669750802298 11.258330249197702" d="M 0 0 L 27 0"/></g>
<g id="c1:101" transform="translate(585, 441)"><path fill="none" stroke="#657386" stroke-width="2" stroke-linecap="butt" stroke-linejoin="round" marker-end="url(#connector-arrow-19)" stroke-dasharray="0 0 15.741669750802298 11.258330249197702" d="M 0 0 L 27 0"/></g>
<g id="c1:102" transform="translate(755, 441)"><path fill="none" stroke="#657386" stroke-width="2" stroke-linecap="butt" stroke-linejoin="round" marker-end="url(#connector-arrow-20)" stroke-dasharray="0 0 25.7416697508023 11.258330249197702" d="M 0 0 L 37 0"/></g>
<g id="c1:103" transform="translate(917, 441)"><path fill="none" stroke="#657386" stroke-width="2" stroke-linecap="butt" stroke-linejoin="round" marker-end="url(#connector-arrow-21)" stroke-dasharray="0 0 23.7416697508023 11.258330249197702" d="M 0 0 L 35 0"/></g>
<g id="c1:104" transform="translate(1075, 441)"><path fill="none" stroke="#657386" stroke-width="2" stroke-linecap="butt" stroke-linejoin="round" marker-end="url(#connector-arrow-22)" stroke-dasharray="0 0 15.741669750802298 11.258330249197702" d="M 0 0 L 27 0"/></g>
<g id="c1:105" transform="translate(1215, 441)"><path fill="none" stroke="#657386" stroke-width="2" stroke-linecap="butt" stroke-linejoin="round" marker-end="url(#connector-arrow-23)" stroke-dasharray="0 0 13.741669750802298 11.258330249197702" d="M 0 0 L 25 0"/></g>
<g id="c1:106" transform="translate(236, 475)"><path fill="none" stroke="#8d76b7" stroke-width="2" stroke-linecap="butt" stroke-linejoin="round" marker-end="url(#connector-arrow-24)" stroke-dasharray="0 0 29.7416697508023 11.258330249197702" d="M 0 0 L 0 41"/></g>
<g id="c1:107" transform="translate(856, 475)"><path fill="none" stroke="#8d76b7" stroke-width="2" stroke-linecap="butt" stroke-linejoin="round" marker-end="url(#connector-arrow-25)" stroke-dasharray="0 0 29.7416697508023 11.258330249197702" d="M 0 0 L 0 41"/></g>
<g id="a1:201" transform="translate(260, 480.9995)"><text font-size="17" font-family="Noto Sans SC" font-weight="normal" fill="#65537f" text-anchor="start" dominant-baseline="alphabetic" x="0"><tspan x="0" y="20.001"><tspan x="0" text-anchor="start">只保留本层 K/V</tspan></tspan></text></g>
<g id="a1:202" transform="translate(881, 480.9995)"><text font-size="17" font-family="Noto Sans SC" font-weight="normal" fill="#65537f" text-anchor="start" dominant-baseline="alphabetic" x="0"><tspan x="0" y="20.001"><tspan x="0" text-anchor="start">只保留本层 K/V</tspan></tspan></text></g>
<g id="o1:91" transform="translate(145, 524)"><rect x="0" y="0" width="270" height="75" fill="#f7f4fb" stroke="#8d76b7" stroke-width="1.5" rx="6" ry="6"/></g>
<g id="o1:92" transform="translate(765, 524)"><rect x="0" y="0" width="270" height="75" fill="#f7f4fb" stroke="#8d76b7" stroke-width="1.5" rx="6" ry="6"/></g>
<g id="a1:203" transform="translate(167, 528.6465)"><text font-size="19" font-family="Noto Sans SC" font-weight="bold" fill="#65537f" text-anchor="middle" dominant-baseline="alphabetic" x="113"><tspan x="113" y="22.354"><tspan x="22.445" text-anchor="start">Block 1 的 KV Cache</tspan></tspan></text></g>
<g id="a1:204" transform="translate(206.5, 558.823)"><text font-size="18" font-family="Noto Sans SC" font-weight="normal" fill="#65537f" text-anchor="middle" dominant-baseline="alphabetic" x="73.5"><tspan x="73.5" y="21.177"><tspan x="0.08" text-anchor="start">t1、t2、t3 的 k / v</tspan></tspan></text></g>
<g id="a1:205" transform="translate(787, 528.6465)"><text font-size="19" font-family="Noto Sans SC" font-weight="bold" fill="#65537f" text-anchor="middle" dominant-baseline="alphabetic" x="113"><tspan x="113" y="22.354"><tspan x="22.445" text-anchor="start">Block 2 的 KV Cache</tspan></tspan></text></g>
<g id="a1:206" transform="translate(826.5, 558.823)"><text font-size="18" font-family="Noto Sans SC" font-weight="normal" fill="#65537f" text-anchor="middle" dominant-baseline="alphabetic" x="73.5"><tspan x="73.5" y="21.177"><tspan x="0.08" text-anchor="start">t1、t2、t3 的 k / v</tspan></tspan></text></g>
<g id="a1:207" transform="translate(468, 520.6465)"><text font-size="19" font-family="Noto Sans SC" font-weight="bold" fill="#877951" text-anchor="start" dominant-baseline="alphabetic" x="0"><tspan x="0" y="22.354"><tspan x="0" text-anchor="start">沿金色 t1 行看：</tspan></tspan></text></g>
<g id="a1:208" transform="translate(468, 553.823)"><text font-size="18" font-family="Noto Sans SC" font-weight="normal" fill="#1f2d3d" text-anchor="start" dominant-baseline="alphabetic" x="0"><tspan x="0" y="21.177"><tspan x="0" text-anchor="start">旧 a / MLP 输出用于生成下一层 K/V</tspan></tspan></text></g>
<g id="a1:209" transform="translate(1075, 528.823)"><text font-size="18" font-family="Noto Sans SC" font-weight="normal" fill="#657386" text-anchor="start" dominant-baseline="alphabetic" x="0"><tspan x="0" y="21.177"><tspan x="0" text-anchor="start">每层 K/V 不同；</tspan></tspan></text></g>
<g id="a1:210" transform="translate(1075, 558.823)"><text font-size="18" font-family="Noto Sans SC" font-weight="normal" fill="#657386" text-anchor="start" dominant-baseline="alphabetic" x="0"><tspan x="0" y="21.177"><tspan x="0" text-anchor="start">不是同一份缓存跨层复用。</tspan></tspan></text></g>
<g id="o1:93" transform="translate(44, 640)"><ellipse fill="#f0f7f3" stroke="#39826d" stroke-width="1.5" cx="19" cy="19" rx="19" ry="19"/></g>
<g id="a1:211" transform="translate(54, 642.47)"><text font-size="20" font-family="Noto Sans SC" font-weight="bold" fill="#2e7963" text-anchor="middle" dominant-baseline="alphabetic" x="9"><tspan x="9" y="23.53"><tspan x="3.1" text-anchor="start">2</tspan></tspan></text></g>
<g id="a1:212" transform="translate(96, 638.764)"><text font-size="24" font-family="Noto Sans SC" font-weight="bold" fill="#2e7963" text-anchor="start" dominant-baseline="alphabetic" x="0"><tspan x="0" y="28.236"><tspan x="0" text-anchor="start">Decode：只新算 t4</tspan></tspan></text></g>
<g id="a1:213" transform="translate(600, 642.2935)"><text font-size="21" font-family="Noto Sans SC" font-weight="normal" fill="#657386" text-anchor="start" dominant-baseline="alphabetic" x="0"><tspan x="0" y="24.707"><tspan x="0" text-anchor="start">旧位置的 Attention / MLP 不重跑</tspan></tspan></text></g>
<g id="a1:214" transform="translate(180, 691.9405)"><text font-size="23" font-family="Noto Sans SC" font-weight="bold" fill="#2e7963" text-anchor="start" dominant-baseline="alphabetic" x="0"><tspan x="0" y="27.06"><tspan x="0" text-anchor="start">Block 1</tspan></tspan></text></g>
<g id="a1:215" transform="translate(800, 691.9405)"><text font-size="23" font-family="Noto Sans SC" font-weight="bold" fill="#2e7963" text-anchor="start" dominant-baseline="alphabetic" x="0"><tspan x="0" y="27.06"><tspan x="0" text-anchor="start">Block 2</tspan></tspan></text></g>
<g id="o1:94" transform="translate(60, 773)"><rect x="0" y="0" width="58" height="46" fill="#f0f7f3" stroke="#39826d" stroke-width="1.5" rx="6" ry="6"/></g>
<g id="a1:216" transform="translate(75.5, 778.117)"><text font-size="22" font-family="Noto Sans SC" font-weight="bold" fill="#2e7963" text-anchor="middle" dominant-baseline="alphabetic" x="13.5"><tspan x="13.5" y="25.883"><tspan x="2.38" text-anchor="start">t4</tspan></tspan></text></g>
<g id="o1:95" transform="translate(180, 763)"><rect x="0" y="0" width="112" height="70" fill="#f0f7f3" stroke="#39826d" stroke-width="1.5" rx="8" ry="8"/></g>
<g id="o1:96" transform="translate(330, 763)"><rect x="0" y="0" width="110" height="70" fill="#f0f7f3" stroke="#39826d" stroke-width="1.5" rx="8" ry="8"/></g>
<g id="c1:108" transform="translate(385, 561.5)"><path fill="none" stroke="#8d76b7" stroke-width="2" stroke-linecap="butt" stroke-linejoin="round" marker-end="url(#connector-arrow-26)" stroke-dasharray="0 0 292.2416697508023 11.258330249197702" d="M 30 0 L 66 0 L 66 119.5 L 0 119.5 L 0 201.5"/></g>
<g id="o1:97" transform="translate(480, 763)"><rect x="0" y="0" width="100" height="70" fill="#f0f7f3" stroke="#39826d" stroke-width="1.5" rx="8" ry="8"/></g>
<g id="o1:98" transform="translate(620, 773)"><rect x="0" y="0" width="130" height="46" fill="#f0f7f3" stroke="#39826d" stroke-width="1.5" rx="6" ry="6"/></g>
<g id="o1:99" transform="translate(800, 763)"><rect x="0" y="0" width="112" height="70" fill="#f0f7f3" stroke="#39826d" stroke-width="1.5" rx="8" ry="8"/></g>
<g id="o1:100" transform="translate(960, 763)"><rect x="0" y="0" width="110" height="70" fill="#f0f7f3" stroke="#39826d" stroke-width="1.5" rx="8" ry="8"/></g>
<g id="c1:109" transform="translate(1015, 561.5)"><path fill="none" stroke="#8d76b7" stroke-width="2" stroke-linecap="butt" stroke-linejoin="round" marker-end="url(#connector-arrow-27)" stroke-dasharray="0 0 282.2416867508023 11.258330249197702" d="M 20.000013 0 L 56.000015 0 L 56.000015 119.5 L 0 119.5 L 0 201.5"/></g>
<g id="o1:101" transform="translate(1110, 763)"><rect x="0" y="0" width="100" height="70" fill="#f0f7f3" stroke="#39826d" stroke-width="1.5" rx="8" ry="8"/></g>
<g id="a1:217" transform="translate(192.5, 769.9995)"><text font-size="17" font-family="Noto Sans SC" font-weight="normal" fill="#2e7963" text-anchor="middle" dominant-baseline="alphabetic" x="43.5"><tspan x="43.5" y="20.001"><tspan x="1.415" text-anchor="start">生成 Q/K/V</tspan></tspan></text></g>
<g id="a1:218" transform="translate(191, 797.823)"><text font-size="18" font-family="Noto Sans SC" font-weight="bold" fill="#2e7963" text-anchor="middle" dominant-baseline="alphabetic" x="45"><tspan x="45" y="21.177"><tspan x="8.565" text-anchor="start">q4 k4 v4</tspan></tspan></text></g>
<g id="a1:219" transform="translate(339.5, 782.823)"><text font-size="18" font-family="Noto Sans SC" font-weight="bold" fill="#2e7963" text-anchor="middle" dominant-baseline="alphabetic" x="45.5"><tspan x="45.5" y="21.177"><tspan x="3.775" text-anchor="start">Attention</tspan></tspan></text></g>
<g id="a1:220" transform="translate(504, 781.6465)"><text font-size="19" font-family="Noto Sans SC" font-weight="bold" fill="#2e7963" text-anchor="middle" dominant-baseline="alphabetic" x="26"><tspan x="26" y="22.354"><tspan x="6.07" text-anchor="start">MLP</tspan></tspan></text></g>
<g id="a1:221" transform="translate(638, 782.823)"><text font-size="18" font-family="Noto Sans SC" font-weight="normal" fill="#2e7963" text-anchor="middle" dominant-baseline="alphabetic" x="47"><tspan x="47" y="21.177"><tspan x="0.595" text-anchor="start">t4 的新向量</tspan></tspan></text></g>
<g id="a1:222" transform="translate(812.5, 769.9995)"><text font-size="17" font-family="Noto Sans SC" font-weight="normal" fill="#2e7963" text-anchor="middle" dominant-baseline="alphabetic" x="43.5"><tspan x="43.5" y="20.001"><tspan x="1.415" text-anchor="start">生成 Q/K/V</tspan></tspan></text></g>
<g id="a1:223" transform="translate(811, 797.823)"><text font-size="18" font-family="Noto Sans SC" font-weight="bold" fill="#2e7963" text-anchor="middle" dominant-baseline="alphabetic" x="45"><tspan x="45" y="21.177"><tspan x="8.565" text-anchor="start">q4 k4 v4</tspan></tspan></text></g>
<g id="a1:224" transform="translate(969.5, 782.823)"><text font-size="18" font-family="Noto Sans SC" font-weight="bold" fill="#2e7963" text-anchor="middle" dominant-baseline="alphabetic" x="45.5"><tspan x="45.5" y="21.177"><tspan x="3.775" text-anchor="start">Attention</tspan></tspan></text></g>
<g id="a1:225" transform="translate(1134, 781.6465)"><text font-size="19" font-family="Noto Sans SC" font-weight="bold" fill="#2e7963" text-anchor="middle" dominant-baseline="alphabetic" x="26"><tspan x="26" y="22.354"><tspan x="6.07" text-anchor="start">MLP</tspan></tspan></text></g>
<g id="a1:226" transform="translate(1268, 768.823)"><text font-size="18" font-family="Noto Sans SC" font-weight="normal" fill="#2e7963" text-anchor="middle" dominant-baseline="alphabetic" x="45"><tspan x="45" y="21.177"><tspan x="0" text-anchor="start">进入更深层</tspan></tspan></text></g>
<g id="a1:227" transform="translate(1266, 797.823)"><text font-size="18" font-family="Noto Sans SC" font-weight="normal" fill="#2e7963" text-anchor="middle" dominant-baseline="alphabetic" x="47"><tspan x="47" y="21.177"><tspan x="0.595" text-anchor="start">继续只算 t4</tspan></tspan></text></g>
<g id="c1:110" transform="translate(123, 798)"><path fill="none" stroke="#39826d" stroke-width="2" stroke-linecap="butt" stroke-linejoin="round" marker-end="url(#connector-arrow-28)" stroke-dasharray="0 0 37.7416697508023 11.258330249197702" d="M 0 0 L 49 0"/></g>
<g id="c1:111" transform="translate(297, 798)"><path fill="none" stroke="#39826d" stroke-width="2" stroke-linecap="butt" stroke-linejoin="round" marker-end="url(#connector-arrow-29)" stroke-dasharray="0 0 13.741669750802298 11.258330249197702" d="M 0 0 L 25 0"/></g>
<g id="c1:112" transform="translate(445, 798)"><path fill="none" stroke="#39826d" stroke-width="2" stroke-linecap="butt" stroke-linejoin="round" marker-end="url(#connector-arrow-30)" stroke-dasharray="0 0 15.741669750802298 11.258330249197702" d="M 0 0 L 27 0"/></g>
<g id="c1:113" transform="translate(585, 798)"><path fill="none" stroke="#39826d" stroke-width="2" stroke-linecap="butt" stroke-linejoin="round" marker-end="url(#connector-arrow-31)" stroke-dasharray="0 0 15.741669750802298 11.258330249197702" d="M 0 0 L 27 0"/></g>
<g id="c1:114" transform="translate(755, 798)"><path fill="none" stroke="#39826d" stroke-width="2" stroke-linecap="butt" stroke-linejoin="round" marker-end="url(#connector-arrow-32)" stroke-dasharray="0 0 25.7416697508023 11.258330249197702" d="M 0 0 L 37 0"/></g>
<g id="c1:115" transform="translate(917, 798)"><path fill="none" stroke="#39826d" stroke-width="2" stroke-linecap="butt" stroke-linejoin="round" marker-end="url(#connector-arrow-33)" stroke-dasharray="0 0 23.7416697508023 11.258330249197702" d="M 0 0 L 35 0"/></g>
<g id="c1:116" transform="translate(1075, 798)"><path fill="none" stroke="#39826d" stroke-width="2" stroke-linecap="butt" stroke-linejoin="round" marker-end="url(#connector-arrow-34)" stroke-dasharray="0 0 15.741669750802298 11.258330249197702" d="M 0 0 L 27 0"/></g>
<g id="c1:117" transform="translate(1215, 798)"><path fill="none" stroke="#39826d" stroke-width="2" stroke-linecap="butt" stroke-linejoin="round" marker-end="url(#connector-arrow-35)" stroke-dasharray="0 0 13.741669750802298 11.258330249197702" d="M 0 0 L 25 0"/></g>
<g id="a1:228" transform="translate(338, 845.9995)"><text font-size="17" font-family="Noto Sans SC" font-weight="normal" fill="#65537f" text-anchor="start" dominant-baseline="alphabetic" x="0"><tspan x="0" y="20.001"><tspan x="0" text-anchor="start">读本层旧 KV + 当前 KV</tspan></tspan></text></g>
<g id="a1:229" transform="translate(968, 845.9995)"><text font-size="17" font-family="Noto Sans SC" font-weight="normal" fill="#65537f" text-anchor="start" dominant-baseline="alphabetic" x="0"><tspan x="0" y="20.001"><tspan x="0" text-anchor="start">读本层旧 KV + 当前 KV</tspan></tspan></text></g>
<g id="c1:118" transform="translate(236, 838)"><path fill="none" stroke="#39826d" stroke-width="2" stroke-linecap="butt" stroke-linejoin="round" marker-end="url(#connector-arrow-36)" stroke-dasharray="0 0 35.7416697508023 11.258330249197702" d="M 0 0 L 0 47"/></g>
<g id="c1:119" transform="translate(856, 838)"><path fill="none" stroke="#39826d" stroke-width="2" stroke-linecap="butt" stroke-linejoin="round" marker-end="url(#connector-arrow-37)" stroke-dasharray="0 0 35.7416697508023 11.258330249197702" d="M 0 0 L 0 47"/></g>
<g id="o1:102" transform="translate(145, 894)"><rect x="0" y="0" width="270" height="46" fill="#f7f4fb" stroke="#8d76b7" stroke-width="1.3" rx="5" ry="5"/></g>
<g id="o1:103" transform="translate(335, 896)"><rect x="0" y="0" width="78" height="42" fill="#f0f7f3" stroke="#39826d" stroke-width="1" rx="4" ry="4"/></g>
<g id="o1:104" transform="translate(765, 894)"><rect x="0" y="0" width="270" height="46" fill="#f7f4fb" stroke="#8d76b7" stroke-width="1.3" rx="5" ry="5"/></g>
<g id="o1:105" transform="translate(955, 896)"><rect x="0" y="0" width="78" height="42" fill="#f0f7f3" stroke="#39826d" stroke-width="1" rx="4" ry="4"/></g>
<g id="a1:230" transform="translate(177.5, 902.823)"><text font-size="18" font-family="Noto Sans SC" font-weight="normal" fill="#65537f" text-anchor="middle" dominant-baseline="alphabetic" x="63.5"><tspan x="63.5" y="21.177"><tspan x="2.81" text-anchor="start">旧 t1～t3 的 KV</tspan></tspan></text></g>
<g id="a1:231" transform="translate(358, 902.823)"><text font-size="18" font-family="Noto Sans SC" font-weight="normal" fill="#2e7963" text-anchor="middle" dominant-baseline="alphabetic" x="16"><tspan x="16" y="21.177"><tspan x="0.6" text-anchor="start">+ t4</tspan></tspan></text></g>
<g id="a1:232" transform="translate(797.5, 902.823)"><text font-size="18" font-family="Noto Sans SC" font-weight="normal" fill="#65537f" text-anchor="middle" dominant-baseline="alphabetic" x="63.5"><tspan x="63.5" y="21.177"><tspan x="2.81" text-anchor="start">旧 t1～t3 的 KV</tspan></tspan></text></g>
<g id="a1:233" transform="translate(978, 902.823)"><text font-size="18" font-family="Noto Sans SC" font-weight="normal" fill="#2e7963" text-anchor="middle" dominant-baseline="alphabetic" x="16"><tspan x="16" y="21.177"><tspan x="0.6" text-anchor="start">+ t4</tspan></tspan></text></g>
<g id="a1:234" transform="translate(446, 902.823)"><text font-size="18" font-family="Noto Sans SC" font-weight="normal" fill="#657386" text-anchor="start" dominant-baseline="alphabetic" x="0"><tspan x="0" y="21.177"><tspan x="0" text-anchor="start">本轮追加后的缓存</tspan></tspan></text></g>
<g id="a1:235" transform="translate(1066, 902.823)"><text font-size="18" font-family="Noto Sans SC" font-weight="normal" fill="#657386" text-anchor="start" dominant-baseline="alphabetic" x="0"><tspan x="0" y="21.177"><tspan x="0" text-anchor="start">本轮追加后的缓存</tspan></tspan></text></g>
<g id="c1:120" transform="translate(44, 970)"><path fill="none" stroke="#dde4ec" stroke-width="2" stroke-linecap="round" stroke-linejoin="round" d="M 0 0 L 1352 0"/></g>
<g id="a1:236" transform="translate(44, 985.2935)"><text font-size="21" font-family="Noto Sans SC" font-weight="bold" fill="#1f2d3d" text-anchor="start" dominant-baseline="alphabetic" x="0"><tspan x="0" y="24.707"><tspan x="0" text-anchor="start">保存每层供新位置读取的 K/V，Decode 就不必保留或重算旧 a / MLP 输出。</tspan></tspan></text></g>
<g id="a1:237" transform="translate(44, 1026.6465)"><text font-size="19" font-family="Noto Sans SC" font-weight="normal" fill="#657386" text-anchor="start" dominant-baseline="alphabetic" x="0"><tspan x="0" y="22.354"><tspan x="0" text-anchor="start">更深层 K/V 已由前面 Blocks 处理后的表示生成；因果约束保证追加 t4 后，旧位置的这些结果不变。</tspan></tspan></text></g>
</svg>